<?xml version="1.0" encoding="utf-8"?>
<!-- Generator: Adobe Illustrator 25.2.1, SVG Export Plug-In . SVG Version: 6.00 Build 0)  -->
<svg version="1.1" id="Camada_1" xmlns="http://www.w3.org/2000/svg" xmlns:xlink="http://www.w3.org/1999/xlink" x="0px" y="0px"
	 viewBox="0 0 1283.17 221.7" style="enable-background:new 0 0 1283.17 221.7;" xml:space="preserve">
<style type="text/css">
	.st0{clip-path:url(#SVGID_2_);fill:#FBC013;}
	.st1{clip-path:url(#SVGID_2_);fill:#FFCA00;}
	.st2{clip-path:url(#SVGID_2_);fill:#FFAC00;}
	.st3{clip-path:url(#SVGID_2_);fill:#FF6700;}
	.st4{clip-path:url(#SVGID_2_);fill:#E61126;}
	.st5{clip-path:url(#SVGID_2_);fill:#3AE4C2;}
	.st6{clip-path:url(#SVGID_2_);fill:#4ADE3D;}
	.st7{clip-path:url(#SVGID_2_);fill:#93E13C;}
	.st8{clip-path:url(#SVGID_2_);fill:#3C4898;}
	.st9{clip-path:url(#SVGID_2_);fill:#3463AC;}
	.st10{clip-path:url(#SVGID_2_);fill:#00B3FF;}
	.st11{clip-path:url(#SVGID_2_);fill:#4400FF;}
	.st12{clip-path:url(#SVGID_2_);fill:#0068FF;}
</style>
<g>
	<defs>
		<rect id="SVGID_1_" x="-304.48" y="-427.26" width="1920" height="1080"/>
	</defs>
	<clipPath id="SVGID_2_">
		<use xlink:href="#SVGID_1_"  style="overflow:visible;"/>
	</clipPath>
	<path class="st0" d="M144.22,69.98c-4.48-2.85-8.23-4.11-12.15-4.11c-3.08,0-6.3,0.74-11.15,2.55c-0.34,0.13-0.73,0.04-0.98-0.22
		c-0.26-0.26-0.33-0.65-0.19-0.99c1.67-4,4.33-9.67,7.61-13.97c4.54-5.98,11.44-7.22,15.68-7.36c-1.61-0.65-3.72-1.33-6.28-1.74
		c-1.93-0.32-3.65-0.47-5.26-0.47c-6.74,0-11.07,2.82-16.27,7.68c-0.27,0.25-0.67,0.32-1.01,0.17c-0.34-0.15-0.55-0.49-0.54-0.86
		c0.1-3.97,0.5-9.71,1.82-14.52c1.28-4.66,4.44-8.58,9.14-11.32c0.93-0.55,1.84-0.99,2.66-1.36h-0.08c-2.09,0-4.24,0.25-6.4,0.73
		c-4.96,1.11-8.38,2.74-11.09,5.29c-2.35,2.21-4.23,5.12-6.48,10.07c-0.15,0.33-0.49,0.54-0.85,0.54c-0.37-0.01-0.7-0.23-0.83-0.57
		c-1.65-4-3.77-9.9-4.5-15.26c-0.65-4.79,0.72-9.63,3.97-14c0.64-0.86,1.29-1.63,1.91-2.29c-1.6,0.68-3.57,1.69-5.67,3.2
		c-8.24,5.92-9.83,11.27-10.13,20.32c-0.01,0.37-0.24,0.7-0.59,0.83c-0.35,0.13-0.74,0.04-0.99-0.23
		c-2.73-2.88-6.51-7.22-8.98-11.55c-2.39-4.2-2.93-9.2-1.54-14.47c0.27-1.04,0.6-1.99,0.92-2.84c-1.23,1.22-2.68,2.9-4.07,5.09
		c-2.72,4.29-3.99,7.86-4.1,11.59c-0.1,3.22,0.63,6.61,2.54,11.71c0.13,0.34,0.04,0.73-0.22,0.98c-0.26,0.25-0.65,0.33-0.99,0.19
		c-4-1.67-9.66-4.34-13.97-7.6c-3.85-2.92-6.3-7.32-7.1-12.71c-0.15-1.07-0.23-2.07-0.26-2.97c-0.65,1.61-1.33,3.72-1.74,6.27
		c-1.64,10.01,1.02,14.92,7.21,21.53c0.25,0.27,0.32,0.67,0.17,1.01c-0.15,0.34-0.49,0.55-0.86,0.54c-3.97-0.1-9.71-0.5-14.52-1.82
		c-4.66-1.28-8.58-4.44-11.32-9.14c-0.54-0.93-0.99-1.83-1.35-2.66c-0.01,1.74,0.16,3.95,0.72,6.47c1.11,4.96,2.74,8.38,5.29,11.09
		c2.21,2.35,5.12,4.23,10.07,6.49c0.33,0.15,0.55,0.49,0.54,0.85c-0.01,0.37-0.23,0.69-0.57,0.83c-4,1.65-9.9,3.77-15.26,4.5
		c-0.79,0.11-1.59,0.16-2.37,0.16c-4.23,0-8.48-1.61-12.3-4.64c-0.6-0.47-1.14-0.95-1.62-1.4c0.68,1.6,1.69,3.57,3.2,5.67
		c5.92,8.24,11.27,9.83,20.32,10.12c0.37,0.01,0.7,0.25,0.83,0.59c0.13,0.35,0.04,0.74-0.23,0.99c-2.88,2.73-7.22,6.51-11.56,8.98
		c-2.68,1.53-5.65,2.3-8.84,2.3c-3.29,0-6.26-0.82-8.46-1.67c1.22,1.23,2.9,2.67,5.08,4.06c4.48,2.84,8.23,4.11,12.15,4.11
		c3.07,0,6.3-0.74,11.14-2.55c0.34-0.13,0.73-0.04,0.99,0.22c0.25,0.26,0.33,0.65,0.18,0.99c-1.66,4-4.33,9.67-7.6,13.97
		c-4.54,5.98-11.44,7.22-15.68,7.36c1.61,0.65,3.72,1.33,6.27,1.74c1.93,0.32,3.65,0.47,5.26,0.47c6.74,0,11.07-2.82,16.27-7.68
		c0.27-0.25,0.67-0.32,1-0.17c0.34,0.15,0.55,0.49,0.54,0.86c-0.1,3.97-0.5,9.71-1.82,14.53c-1.27,4.66-4.43,8.58-9.14,11.32
		c-0.93,0.54-1.84,0.99-2.66,1.36h0.08c2.09,0,4.24-0.24,6.39-0.73c4.96-1.11,8.38-2.74,11.1-5.29c2.35-2.2,4.23-5.12,6.49-10.07
		c0.15-0.33,0.49-0.54,0.85-0.54c0.37,0.01,0.7,0.23,0.83,0.57c1.65,4,3.77,9.9,4.5,15.26c0.66,4.79-0.71,9.63-3.96,14
		c-0.64,0.86-1.3,1.63-1.91,2.29c1.6-0.68,3.57-1.7,5.67-3.21c8.24-5.92,9.83-11.27,10.12-20.32c0.01-0.37,0.25-0.7,0.59-0.83
		c0.11-0.04,0.22-0.06,0.33-0.06c0.25,0,0.49,0.1,0.67,0.29c2.74,2.88,6.51,7.22,8.99,11.56c2.39,4.2,2.93,9.2,1.54,14.47
		c-0.27,1.04-0.59,2-0.92,2.84c1.23-1.22,2.68-2.9,4.07-5.09c2.72-4.29,3.99-7.86,4.1-11.59c0.1-3.22-0.63-6.61-2.54-11.71
		c-0.13-0.34-0.04-0.73,0.22-0.98c0.26-0.26,0.65-0.33,0.99-0.19c4,1.66,9.67,4.33,13.97,7.61c3.85,2.92,6.3,7.31,7.1,12.71
		c0.16,1.06,0.23,2.07,0.26,2.97c0.65-1.61,1.33-3.72,1.74-6.27c1.64-10.01-1.02-14.92-7.21-21.53c-0.25-0.27-0.32-0.66-0.17-1
		c0.15-0.34,0.49-0.55,0.86-0.54c3.97,0.1,9.71,0.5,14.52,1.82c4.66,1.28,8.58,4.44,11.32,9.14c0.54,0.93,0.99,1.83,1.35,2.66
		c0.01-1.74-0.16-3.95-0.72-6.47c-1.11-4.96-2.74-8.38-5.29-11.09c-2.2-2.35-5.12-4.23-10.07-6.49c-0.33-0.15-0.54-0.49-0.54-0.85
		s0.23-0.69,0.57-0.83c4-1.65,9.9-3.77,15.26-4.5c0.79-0.11,1.58-0.16,2.37-0.16c4.23,0,8.48,1.6,12.3,4.64
		c0.6,0.47,1.14,0.95,1.62,1.4c-0.68-1.6-1.69-3.57-3.2-5.67c-5.92-8.24-11.27-9.83-20.32-10.13c-0.37-0.01-0.7-0.24-0.83-0.59
		c-0.13-0.35-0.04-0.74,0.23-0.99c2.88-2.73,7.22-6.51,11.56-8.98c2.68-1.53,5.65-2.3,8.84-2.3c3.29,0,6.26,0.82,8.46,1.67
		C148.07,72.8,146.4,71.36,144.22,69.98"/>
	<path class="st1" d="M829.23,32.96h79.55c17.47,0,25.08,7.49,25.08,21.15c0,7.6-3.57,14.02-10.1,16.52v0.24
		c10.93,2.85,14.5,13.07,14.5,19.37c0,16.64-8.32,27.57-33.16,27.57h-75.86V32.96z M862.03,64.57h28.56c6.78,0,8.32-2.26,8.32-5.59
		c0-3.21-1.54-5.35-8.32-5.35h-28.56V64.57z M862.03,97.14h31.89c6.66,0,8.67-2.85,8.67-6.65c0-3.68-2.02-6.66-8.67-6.66h-31.89
		V97.14z"/>
	<path class="st2" d="M941.55,32.96h33.12V84.3c0,10.93,6.22,14.38,17.03,14.38c10.81,0,17.03-3.45,17.03-14.38V32.96h33.12v52.65
		c0,26.98-16.09,35.18-50.15,35.18c-34.06,0-50.15-8.2-50.15-35.18V32.96z"/>
	<path class="st3" d="M1159.75,84.77c-2.26,11.29-5.82,20.21-14.26,26.38c-8.2,6.18-21.04,9.63-41.47,9.63
		c-20.32,0-57.99-1.31-57.99-45.39c0-43.97,37.67-45.4,57.99-45.4c20.08,0,51.46,2.49,55.74,36.25h-37.79
		c-0.95-6.06-4.99-14.86-17.94-14.86c-13.79,0-22.34,6.77-22.34,24.01c0,17.23,8.32,24,20.68,24c10.58,0,16.88-4.28,19.61-14.62
		H1159.75z"/>
	<path class="st4" d="M1219.18,29.99c20.32,0,57.99,1.42,57.99,45.4c0,43.97-37.67,45.4-57.99,45.4c-20.32,0-57.99-1.31-57.99-45.4
		C1161.19,31.42,1198.86,29.99,1219.18,29.99 M1219.18,99.39c13.78,0,22.34-6.77,22.34-24c0-17.23-8.56-24.01-22.34-24.01
		c-13.79,0-22.34,6.77-22.34,24.01C1196.84,92.62,1205.4,99.39,1219.18,99.39"/>
	<polygon class="st5" points="478.03,32.96 537.36,32.96 571.35,80.02 571.71,80.02 571.71,32.96 603.8,32.96 603.8,117.82 
		567.07,117.82 531.42,70.28 531.19,70.28 531.19,117.82 478.03,117.82 	"/>
	<path class="st6" d="M638.27,32.96h41.12l36.13,84.85h-35.65l-3.57-9.74h-34.94l-3.56,9.74h-35.65L638.27,32.96z M658.95,58.63
		h-0.24l-9.98,28.76h20.2L658.95,58.63z"/>
	<polygon class="st7" points="713.86,32.96 761.04,32.96 774.95,82.28 775.18,82.28 789.09,32.96 836.27,32.96 836.27,117.82 
		805.85,117.82 805.85,57.21 805.61,57.21 787.78,117.82 762.35,117.82 744.52,57.21 744.29,57.21 744.29,117.82 713.86,117.82 	"/>
	<path class="st8" d="M182.81,32.96l74.45-0.17c23.77,0,31.33,10.7,31.33,29.59c0,16.28-8.56,28.88-32.33,28.88h-39.95v26.38
		l-33.51,0.17V32.96z M216.32,70.58h25.68c8.56,0,11.65-2.62,11.65-8.79c0-6.54-3.09-9.03-11.65-9.03h-25.68V70.58z"/>
	<polygon class="st9" points="290.6,32.79 390.65,32.79 390.65,53.47 322.76,53.47 322.76,64.88 386.61,64.88 386.61,85.56 
		322.76,85.56 322.76,96.96 390.65,96.96 390.65,117.64 290.6,117.64 	"/>
	<path class="st10" d="M393.56,32.79h70.59c9.62,0,15.45,0.83,20.08,3.09c6.3,3.21,11.53,11.17,11.53,20.56
		c0,8.08-3.21,16.52-13.07,19.37v0.24c5.11,1.43,9.03,5.59,9.63,13.07l1.42,18.54c0.36,3.8,1.9,7.25,4.16,9.98h-36.6
		c-1.31-2.49-1.19-6.18-1.78-16.04c-0.36-6.3-2.49-10.1-8.68-10.1h-23.77v26.14h-33.51V32.79z M427.07,70.11h23.77
		c6.66,0,9.27-2.62,9.27-7.96c0-6.54-4.16-7.96-9.75-7.96h-23.29V70.11z"/>
	<path class="st1" d="M829.23,32.96h79.55c17.47,0,25.08,7.49,25.08,21.15c0,7.6-3.57,14.02-10.1,16.52v0.24
		c10.93,2.85,14.5,13.07,14.5,19.37c0,16.64-8.32,27.57-33.16,27.57h-75.86V32.96z M862.03,64.57h28.56c6.78,0,8.32-2.26,8.32-5.59
		c0-3.21-1.54-5.35-8.32-5.35h-28.56V64.57z M862.03,97.14h31.89c6.66,0,8.67-2.85,8.67-6.65c0-3.68-2.02-6.66-8.67-6.66h-31.89
		V97.14z"/>
	<path class="st2" d="M941.55,32.96h33.12V84.3c0,10.93,6.22,14.38,17.03,14.38c10.81,0,17.03-3.45,17.03-14.38V32.96h33.12v52.65
		c0,26.98-16.09,35.18-50.15,35.18c-34.06,0-50.15-8.2-50.15-35.18V32.96z"/>
	<path class="st3" d="M1159.75,84.77c-2.26,11.29-5.82,20.21-14.26,26.38c-8.2,6.18-21.04,9.63-41.47,9.63
		c-20.32,0-57.99-1.31-57.99-45.39c0-43.97,37.67-45.4,57.99-45.4c20.08,0,51.46,2.49,55.74,36.25h-37.79
		c-0.95-6.06-4.99-14.86-17.94-14.86c-13.79,0-22.34,6.77-22.34,24.01c0,17.23,8.32,24,20.68,24c10.58,0,16.88-4.28,19.61-14.62
		H1159.75z"/>
	<path class="st4" d="M1219.18,29.99c20.32,0,57.99,1.42,57.99,45.4c0,43.97-37.67,45.4-57.99,45.4c-20.32,0-57.99-1.31-57.99-45.4
		C1161.19,31.42,1198.86,29.99,1219.18,29.99 M1219.18,99.39c13.78,0,22.34-6.77,22.34-24c0-17.23-8.56-24.01-22.34-24.01
		c-13.79,0-22.34,6.77-22.34,24.01C1196.84,92.62,1205.4,99.39,1219.18,99.39"/>
	<polygon class="st5" points="478.03,32.96 537.36,32.96 571.35,80.02 571.71,80.02 571.71,32.96 603.8,32.96 603.8,117.82 
		567.07,117.82 531.42,70.28 531.19,70.28 531.19,117.82 478.03,117.82 	"/>
	<path class="st6" d="M638.27,32.96h41.12l36.13,84.85h-35.65l-3.57-9.74h-34.94l-3.56,9.74h-35.65L638.27,32.96z M658.95,58.63
		h-0.24l-9.98,28.76h20.2L658.95,58.63z"/>
	<polygon class="st7" points="713.86,32.96 761.04,32.96 774.95,82.28 775.18,82.28 789.09,32.96 836.27,32.96 836.27,117.82 
		805.85,117.82 805.85,57.21 805.61,57.21 787.78,117.82 762.35,117.82 744.52,57.21 744.29,57.21 744.29,117.82 713.86,117.82 	"/>
	<path class="st11" d="M182.81,32.96l74.45-0.17c23.77,0,31.33,10.7,31.33,29.59c0,16.28-8.56,28.88-32.33,28.88h-39.95v26.38
		l-33.51,0.17V32.96z M216.32,70.58h25.68c8.56,0,11.65-2.62,11.65-8.79c0-6.54-3.09-9.03-11.65-9.03h-25.68V70.58z"/>
	<polygon class="st12" points="290.6,32.79 390.65,32.79 390.65,53.47 322.76,53.47 322.76,64.88 386.61,64.88 386.61,85.56 
		322.76,85.56 322.76,96.96 390.65,96.96 390.65,117.64 290.6,117.64 	"/>
	<path class="st10" d="M393.56,32.79h70.59c9.62,0,15.45,0.83,20.08,3.09c6.3,3.21,11.53,11.17,11.53,20.56
		c0,8.08-3.21,16.52-13.07,19.37v0.24c5.11,1.43,9.03,5.59,9.63,13.07l1.42,18.54c0.36,3.8,1.9,7.25,4.16,9.98h-36.6
		c-1.31-2.49-1.19-6.18-1.78-16.04c-0.36-6.3-2.49-10.1-8.68-10.1h-23.77v26.14h-33.51V32.79z M427.07,70.11h23.77
		c6.66,0,9.27-2.62,9.27-7.96c0-6.54-4.16-7.96-9.75-7.96h-23.29V70.11z"/>
	<path class="st11" d="M347.23,205.18c-1.86-0.45-3.64-1.13-5.35-2.04c-1.14-0.81-2.14-2.26-3-4.35c-0.43-1.72-0.64-3.63-0.64-5.71
		c0-1.09,0.07-1.99,0.22-2.72c0.29-0.72,0.43-1.36,0.43-1.9c0.14-0.82,0.64-2.22,1.5-4.22c0.72-1.36,1.07-2.22,1.07-2.59
		c0.29-0.45,0.5-0.77,0.64-0.95c0.29-0.27,0.43-0.54,0.43-0.82c0.86-1.63,2.28-3.49,4.28-5.58c0.28-0.27,0.43-0.45,0.43-0.55v-0.14
		c-0.14,0-0.21-0.05-0.21-0.14h0.21c0.43-0.18,0.92-0.59,1.5-1.22c1.85-1.63,4.07-2.86,6.64-3.67c0.71-0.36,1.71-0.54,3-0.54
		c0.57,0,1.28,0.05,2.14,0.14c3.43,0.18,5.92,0.68,7.49,1.5c0.43,0.18,0.86,0.27,1.28,0.27c0.28,0,0.43-0.05,0.43-0.14h0.21
		c0.28,0,0.78,0.18,1.5,0.54c1.14,0.54,1.78,0.82,1.93,0.82c0.43,0,0.67,0.29,0.75,0.88c0.07,0.59,0.11,2.2,0.11,4.83
		c-0.14,5.8,0.71,11.2,2.57,16.19c0.71,2.45,1.5,4.31,2.36,5.58l1.5,1.9l1.71-0.95c2-1.36,4.07-3.95,6.21-7.75l6.64-12.24
		c0-0.09,0.07-0.14,0.21-0.14c0.43,0,0.93,0.14,1.5,0.41c0.29,0.18,0.5,0.27,0.64,0.27l0.21-0.14h0.43c0.71,0,1.64,0.32,2.78,0.95
		c0,0.09-0.18,0.66-0.53,1.7c-0.36,1.04-0.89,2.38-1.61,4.01c-0.57,1-0.86,1.59-0.86,1.77c0,0.09-0.36,0.82-1.07,2.17
		c-3.14,8.53-7.92,12.79-14.35,12.79c-4,0-7.78-1.45-11.35-4.35c-2.43-3.45-3.64-5.71-3.64-6.8c0-0.45-0.21-0.73-0.64-0.82
		c-0.14,0-0.21,0.14-0.21,0.41c0,0.82-1.36,3.26-4.07,7.34c-2,2.54-3.93,4.31-5.78,5.31c-1.71,0.73-3.64,1.09-5.78,1.09
		C349.8,205.59,348.51,205.46,347.23,205.18 M352.8,197.16c0.86-1.27,1.35-1.9,1.5-1.9c0-0.18,0.07-0.36,0.21-0.54
		c0-0.27,0.14-0.59,0.43-0.95c2.28-3.54,3.99-6.62,5.14-9.25c0.28-0.63,0.71-1.68,1.28-3.13c1.71-3.45,2.57-5.85,2.57-7.21
		c0-0.36-0.07-0.68-0.22-0.95c-0.14-0.63-0.36-1.04-0.64-1.23l-0.21-0.13c-0.86,0-2.21,0.86-4.07,2.58c-2.29,2.45-4,4.58-5.14,6.39
		c-0.14,0.27-0.29,0.54-0.43,0.82c-2.43,5.17-3.64,9.89-3.64,14.15c0,0.91,0.07,1.68,0.21,2.31c0,0.36,0.07,0.82,0.21,1.36v0.54
		l0.86-0.54C351.44,199.02,352.08,198.25,352.8,197.16"/>
	<path class="st11" d="M399.98,218.67c-1.12-0.3-1.84-0.71-2.16-1.22c-0.96-2.64-1.92-6-2.88-10.07c-0.16-0.92-0.4-1.63-0.72-2.14
		c-0.8-4.17-1.2-10.12-1.2-17.86c0-8.34,0.48-17.5,1.44-27.47c0.16-0.71,0.24-1.27,0.24-1.68c0-0.51-0.16-0.71-0.48-0.61h-0.48
		c-0.48,0-1.84,0.1-4.08,0.3c-2.24,0.2-3.84,0.31-4.81,0.31c-8.17,0.61-13.53,0.92-16.1,0.92h-0.96c-1.6-0.92-2.4-1.93-2.4-3.05
		c0-0.41,0.16-0.66,0.48-0.76c0.8-0.2,2.01-0.31,3.6-0.31c4.01-0.2,8.01-0.51,12.01-0.91c1.12-0.1,3.6-0.31,7.45-0.61
		c4.16-0.2,6.25-0.61,6.25-1.22c0-0.31,0.08-0.76,0.24-1.37c0-0.31,0.08-1.63,0.24-3.97c0.16-1.53,0.28-2.49,0.36-2.9
		c0.08-0.4,0.44-0.66,1.08-0.76c0.32-0.1,0.64-0.15,0.96-0.15c0.32,0,0.56,0.1,0.72,0.3c0.64,0.3,1.2,0.46,1.68,0.46
		c0.16,0,0.24-0.05,0.24-0.15c0-0.1,0.08-0.15,0.24-0.15c0.96,0,2.56,0.61,4.8,1.83c0.16,0.71,0.24,1.93,0.24,3.66
		c0.16,1.12,0.28,1.91,0.36,2.37c0.08,0.46,0.2,0.69,0.36,0.69h0.24c0.32,0,3.92-0.05,10.81-0.15c2.4-0.1,4.48-0.15,6.25-0.15
		c4.32,0,7.45,0.15,9.37,0.46c1.92,0.3,2.88,0.66,2.88,1.07v0.31c0,0.3,0.08,0.56,0.24,0.76c0.32,0,0.48,0.3,0.48,0.92
		c0,0.71-0.4,1.07-1.2,1.07c-0.48,0.1-0.88,0.15-1.2,0.15c-1.12,0-1.76-0.2-1.92-0.61c0-0.1-0.72-0.15-2.16-0.15
		c-3.21,0-9.61,0.31-19.22,0.92c-3.21,0.2-5.04,0.41-5.53,0.61c-0.16,0.31-0.32,0.92-0.48,1.83v2.44
		c-0.64,6.62-0.96,15.88-0.96,27.78c0,5.39,0.04,10.02,0.12,13.89c0.08,3.87,0.24,6.84,0.48,8.93c0.24,2.09,0.52,3.23,0.84,3.43
		c0.16,0.1,0.24,0.31,0.24,0.61c0,0.71-0.32,1.42-0.96,2.14c-1.28,0.3-2.4,0.46-3.36,0.46
		C401.02,218.82,400.46,218.77,399.98,218.67"/>
	<path class="st11" d="M440.64,210.61c-1.66-0.28-2.8-2.1-3.44-5.45c-0.38-1.49-0.7-3.05-0.95-4.69c-0.26-1.63-0.38-2.54-0.38-2.72
		v-0.28c-0.26,0-0.7,0.38-1.34,1.12c-1.4,1.77-3.43,3.22-6.11,4.34c-1.78,0.47-3.56,0.7-5.34,0.7c-2.29,0-4.2-0.37-5.73-1.12
		l-0.76-0.28c0,0.1-0.07,0.14-0.19,0.14c-0.13,0-0.57-0.33-1.34-0.98c-0.76-0.65-1.34-1.26-1.72-1.82c-1.66-2.7-2.48-6.9-2.48-12.59
		c0-4.2,0.25-8.16,0.76-11.89c0-0.47,0.12-1.17,0.38-2.1c0.26-1.68,0.64-2.52,1.15-2.52c0.51-0.28,1.02-0.42,1.53-0.42
		c0.63,0,1.08,0.19,1.34,0.56c0.12,0.09,0.25,0.14,0.38,0.14h0.19c0.25,0,0.45,0.09,0.57,0.28v0.14c0.13,0,0.19-0.09,0.19-0.28
		c0-0.28,0.13-0.46,0.38-0.56c0.25,0,0.57,0.19,0.95,0.56c0.64,0.28,1.02,0.42,1.15,0.42c0.25,0,0.7,0.14,1.34,0.42
		c0.38,0.1,0.67,0.24,0.86,0.42c0.19,0.19,0.29,0.65,0.29,1.4c0,1.03-0.13,2.85-0.38,5.46c-0.13,2.8-0.19,5.5-0.19,8.11
		c0,2.71,0.06,4.9,0.19,6.58c0.38,2.99,0.89,4.76,1.53,5.32h0.19c0.38,0,1.18-0.63,2.39-1.89c1.21-1.26,2.45-2.73,3.72-4.41
		c1.27-1.68,2.16-3.12,2.67-4.34c0.38-0.84,0.89-1.91,1.53-3.22c1.02-1.49,1.52-3.54,1.52-6.16c0.13-2.05,0.26-3.61,0.38-4.69
		c0.13-1.07,0.25-1.65,0.38-1.75l0.38-1.4c0.38-2.33,0.83-3.68,1.34-4.06c0.38-0.19,0.83-0.28,1.34-0.28c0.64,0,1.02,0.09,1.15,0.28
		c0,0.09,0.19,0.14,0.57,0.14h0.38c0.76,0,1.34,0.14,1.72,0.42c0.25,0.19,0.51,0.28,0.76,0.28h0.19c0.51,0,1.15,0.37,1.91,1.12
		c-0.76,3.55-1.15,9.28-1.15,17.21c0,6.34,0.25,11.94,0.77,16.78c0.38,3.55,0.76,5.6,1.14,6.16c0.25,0.28,0.38,0.51,0.38,0.7
		c0,0.19-0.38,0.42-1.15,0.7c-0.76,0.37-1.59,0.56-2.48,0.56C442.61,211.17,441.66,210.98,440.64,210.61"/>
	<path class="st11" d="M461.01,206.68c-1.29-0.09-2.14-0.68-2.57-1.77c-1.14-1.99-1.93-4.08-2.35-6.26c-0.29-0.9-0.43-1.54-0.43-1.9
		c-0.29-0.9-0.57-2.45-0.86-4.62c-0.15-1.54-0.22-3.76-0.22-6.67c0-2.9,0.07-4.99,0.22-6.26c0-0.45,0.14-1.72,0.43-3.81
		c0.28-2.17,0.43-3.31,0.43-3.4l0.43-2.04c0.57-2.81,1.21-4.85,1.93-6.12c0.28-0.09,0.71-0.14,1.28-0.14c0.86,0,1.57,0.09,2.14,0.27
		c0.29,0.18,0.5,0.27,0.64,0.27l0.21-0.14c0-0.09,0.07-0.13,0.21-0.13c0.43,0,1.14,0.13,2.14,0.41l2.14,0.54l-0.22,1.22
		c-0.86,5.26-1.28,8.52-1.28,9.79v0.27c0.14,0,0.71-0.63,1.71-1.9c2.14-2.99,4.5-4.49,7.06-4.49h0.64c2.85,0.18,5.07,1.22,6.64,3.13
		c3.14,3.08,5.42,4.62,6.85,4.62h0.43c0.43,0,0.64,0.05,0.64,0.14c0,0.27-0.79,0.5-2.35,0.68c-2.71,0-5.92-1.68-9.63-5.03
		c-1-1-1.64-1.5-1.93-1.5c-1.15,0.9-2.78,2.9-4.93,5.99c-2,2.63-3,7.89-3,15.78c0,5.17,0.43,9.07,1.29,11.7v0.27
		c0,0.36-0.5,0.64-1.5,0.82c-1.29,0.36-2.57,0.54-3.85,0.54C462.65,206.95,461.86,206.86,461.01,206.68"/>
	<path class="st11" d="M493.06,205.18c-1.86-0.45-3.64-1.13-5.35-2.04c-1.14-0.81-2.14-2.26-3-4.35c-0.43-1.72-0.64-3.63-0.64-5.71
		c0-1.09,0.08-1.99,0.21-2.72c0.29-0.72,0.43-1.36,0.43-1.9c0.14-0.82,0.64-2.22,1.5-4.22c0.72-1.36,1.07-2.22,1.07-2.59
		c0.28-0.45,0.5-0.77,0.64-0.95c0.28-0.27,0.43-0.54,0.43-0.82c0.86-1.63,2.28-3.49,4.28-5.58c0.28-0.27,0.43-0.45,0.43-0.55v-0.14
		c-0.14,0-0.22-0.05-0.22-0.14h0.22c0.43-0.18,0.92-0.59,1.5-1.22c1.85-1.63,4.07-2.86,6.64-3.67c0.71-0.36,1.71-0.54,3-0.54
		c0.57,0,1.28,0.05,2.14,0.14c3.43,0.18,5.92,0.68,7.49,1.5c0.43,0.18,0.86,0.27,1.29,0.27c0.28,0,0.43-0.05,0.43-0.14h0.21
		c0.28,0,0.78,0.18,1.5,0.54c1.14,0.54,1.78,0.82,1.93,0.82c0.43,0,0.67,0.29,0.75,0.88c0.07,0.59,0.11,2.2,0.11,4.83
		c-0.15,5.8,0.71,11.2,2.57,16.19c0.71,2.45,1.5,4.31,2.36,5.58l1.5,1.9l1.71-0.95c2-1.36,4.07-3.95,6.21-7.75l6.64-12.24
		c0-0.09,0.07-0.14,0.22-0.14c0.43,0,0.93,0.14,1.5,0.41c0.28,0.18,0.5,0.27,0.64,0.27l0.22-0.14h0.43c0.71,0,1.64,0.32,2.78,0.95
		c0,0.09-0.18,0.66-0.53,1.7c-0.36,1.04-0.89,2.38-1.61,4.01c-0.57,1-0.86,1.59-0.86,1.77c0,0.09-0.36,0.82-1.07,2.17
		c-3.14,8.53-7.92,12.79-14.35,12.79c-4,0-7.78-1.45-11.35-4.35c-2.43-3.45-3.64-5.71-3.64-6.8c0-0.45-0.22-0.73-0.64-0.82
		c-0.14,0-0.21,0.14-0.21,0.41c0,0.82-1.36,3.26-4.07,7.34c-2,2.54-3.93,4.31-5.78,5.31c-1.71,0.73-3.64,1.09-5.78,1.09
		C495.62,205.59,494.34,205.46,493.06,205.18 M498.62,197.16c0.86-1.27,1.36-1.9,1.5-1.9c0-0.18,0.07-0.36,0.21-0.54
		c0-0.27,0.14-0.59,0.43-0.95c2.28-3.54,3.99-6.62,5.14-9.25c0.28-0.63,0.71-1.68,1.28-3.13c1.71-3.45,2.57-5.85,2.57-7.21
		c0-0.36-0.08-0.68-0.22-0.95c-0.14-0.63-0.36-1.04-0.64-1.23l-0.21-0.13c-0.86,0-2.21,0.86-4.07,2.58c-2.29,2.45-4,4.58-5.14,6.39
		c-0.14,0.27-0.29,0.54-0.43,0.82c-2.43,5.17-3.64,9.89-3.64,14.15c0,0.91,0.07,1.68,0.21,2.31c0,0.36,0.07,0.82,0.21,1.36v0.54
		l0.86-0.54C497.26,199.02,497.91,198.25,498.62,197.16"/>
	<path class="st11" d="M547.86,207.14c-1.71-0.39-3.29-1.88-4.71-4.46c-1.71-3.76-2.86-8.06-3.42-12.91
		c-0.15-2.5-0.22-5.36-0.22-8.57c0-5.87,0.22-10.45,0.64-13.73c0.28-1.25,0.57-3.76,0.86-7.51c0-2.5,0.14,1.48,0.43,0.69
		c0.71-3.6,1.07-6.96,1.07-10.1c0-0.7,0.14-1.18,0.43-1.41c0-0.16,0.07-0.74,0.21-1.76c0.14-1.17,0.21-1.92,0.21-2.23
		c0.14-0.71,0.22-1.21,0.22-1.53c0-0.31,0.07-0.47,0.21-0.47h0.43c0.14,0,0.21-0.04,0.21-0.12c0-0.16,0.14-0.2,0.43-0.12
		c0.43,0,1.07,0.16,1.93,0.47l1.07,0.59v-0.59c0-0.15,0.07-0.23,0.21-0.23c0.14,0.23,0.43,0.35,0.86,0.35c0.28,0,0.5,0.08,0.64,0.24
		c0,0.08,0.14,0.16,0.43,0.23c0.43,0,0.93,0.12,1.5,0.35c0.43,0.16,0.71,0.35,0.86,0.59c0.14,0.24,0.21,0.82,0.21,1.76
		c0,0.94-0.08,2.27-0.21,3.99c0,3.13-0.07,5.44-0.21,6.92c0,1.17-0.22-1.51-0.64,3.18c-0.29,1.88-0.43,3.87-0.43,5.99
		c-0.14,2.58-0.36,4.69-0.64,6.34c-0.14,3.44-0.21,7.48-0.21,12.09c0,3.36,0.07,5.79,0.21,7.28c0.28,1.41,0.5,3.1,0.64,5.05
		c0.28,2.11,0.93,4.34,1.93,6.69c0.14,0.31,0.64,0.47,1.5,0.47c0.57,0,0.86,0.08,0.86,0.23c0,0.16-0.07,0.31-0.21,0.47
		c0,0.47-0.07,0.82-0.21,1.06c0,0.47-1.36,0.82-4.07,1.06C550.01,207.5,549.01,207.38,547.86,207.14"/>
	<path class="st11" d="M564.98,206.82c-1-0.36-1.71-0.54-2.14-0.54c-1.28-0.45-2.57-3.04-3.85-7.75c-0.57-2.72-0.86-6.58-0.86-11.56
		c0-3.27,0.14-6.48,0.43-9.66c0.29-2.99,0.43-5.71,0.43-8.16c0-2.36,0.14-3.94,0.43-4.76c0.28-0.36,0.78-0.55,1.5-0.55
		c0.57,0,1.14,0.13,1.71,0.41c0.28,0.18,0.57,0.27,0.86,0.27c0.14,0,0.28-0.05,0.43-0.13c0.14-0.09,0.28-0.14,0.43-0.14
		c1.42,0,3,0.59,4.71,1.77c0.43,1.73,0.64,4.58,0.64,8.57v3.4l1.07-1.77c0.71-1.27,1.14-2.08,1.29-2.45
		c0.71-1.18,1.85-2.18,3.42-2.99c0.57-0.18,1.21-0.27,1.93-0.27c1.57,0,3.32,0.25,5.25,0.75c1.93,0.5,3.32,1.11,4.18,1.84
		c1.71,1.27,2.78,4.76,3.21,10.47c0,1.18,0.07,2.04,0.21,2.58v0.14c0.14,0,0.43-0.45,0.86-1.36c2-4.08,4.5-7.53,7.49-10.34
		c0.57-0.45,1.29-0.68,2.14-0.68c0.43,0,1,0.05,1.71,0.14c3.14,0.27,5.42,0.95,6.85,2.04c1.57,1.9,2.64,5.22,3.21,9.93
		c0.29,1.27,0.43,2.13,0.43,2.58c0.28,0.64,0.43,1.36,0.43,2.18c0.28,1,0.43,1.59,0.43,1.77c0.29,0.27,0.43,0.95,0.43,2.04
		c0.28,2.18,0.78,3.49,1.5,3.94c0.29,0,0.78-0.23,1.5-0.68c0.71-0.45,1.57-1.13,2.57-2.04c3.14-3.08,6.21-7.25,9.21-12.51
		c0.71-1.27,1.25-2.22,1.61-2.86c0.35-0.63,0.61-0.95,0.75-0.95c0.14,0,0.21,0.13,0.21,0.41c0,0.18,0.07,0.27,0.21,0.27
		c0.14,0,0.43-0.09,0.86-0.27c0.43-0.18,0.71-0.27,0.86-0.27c0.28,0,0.57,0.09,0.86,0.27c0.28,0,0.43,0.18,0.43,0.54
		c0,0.36-0.14,1.09-0.43,2.18c-0.72,2.63-2.57,6.48-5.57,11.56c-0.86,1.45-2.07,2.9-3.64,4.35c-1.71,1.72-3.21,2.72-4.5,2.99
		c-1.28,0.36-2.64,0.54-4.07,0.54c-2,0-4.43-0.41-7.28-1.22c-1.28-0.36-2.21-0.95-2.78-1.77c-0.57-0.91-0.86-1.54-0.86-1.9
		c0-0.27-0.22-1-0.64-2.18c-0.29-1.18-0.64-3.27-1.07-6.26c-0.14-3.08-0.36-5.44-0.64-7.07c-0.14-1.63-0.21-2.49-0.21-2.58v-0.14
		l-0.43,0.14c-2.14,2.9-4.36,7.21-6.64,12.92c-0.15,0.91-0.36,1.59-0.64,2.04c0,0.27-0.29,1.45-0.86,3.54
		c-0.43,1.81-0.86,2.95-1.29,3.4c-0.29,0.27-1.21,0.45-2.78,0.54h-1.07c-1.14,0-2.14-0.18-3-0.54c-1.72-0.27-3.07-2.18-4.07-5.71
		c0-0.27-0.14-0.72-0.43-1.36c0-0.45-0.14-3.67-0.43-9.66c-0.14-2.27-0.25-4.1-0.32-5.51c-0.07-1.41-0.18-2.42-0.32-3.06
		c-0.14-0.64-0.29-0.96-0.43-0.96c-0.29,0-0.72,0.5-1.29,1.5c-1.29,2.17-2.21,4.21-2.78,6.12c-0.43,1-0.64,1.59-0.64,1.77
		c-1.28,4.17-2.28,9.43-3,15.78c-0.14,2.9-0.36,4.74-0.64,5.51c-0.29,0.77-1,1.2-2.14,1.29c-1,0.27-1.93,0.41-2.78,0.41
		C566.55,207.09,565.84,207,564.98,206.82"/>
	<path class="st11" d="M647.41,206.14c-3-0.27-5.85-0.86-8.56-1.77c-2.57-1.18-4.57-2.45-5.99-3.81c-2.86-2.99-4.57-6.03-5.14-9.11
		c-0.15-0.73-0.21-1.63-0.21-2.72c0-1.72,0.14-3.22,0.43-4.49c0.43-1.27,0.71-2.31,0.86-3.13c0-0.27,0.07-0.5,0.22-0.68
		c0.28-0.18,0.43-0.45,0.43-0.82c0-0.73,0.86-2.49,2.57-5.3c0.29,0,0.43-0.05,0.43-0.14h-0.21v-0.14c0-0.36,1-1.54,3-3.54
		c2.28-2.08,4.71-3.49,7.28-4.22c1.14-0.45,2.42-0.68,3.85-0.68c0.71,0,1.57,0.05,2.57,0.14c2.85,0,5.21,0.36,7.06,1.09
		c3.43,1,5.35,2.31,5.78,3.95c0.28,0.64,0.43,1.31,0.43,2.04c0,1.18-0.43,2.58-1.28,4.22c-4.57,7.71-10.92,11.56-19.06,11.56h-2.57
		l0.22,1.63c0.86,3.99,2.07,6.76,3.64,8.3c0.28,0.18,0.43,0.36,0.43,0.54c0,0.09,0.67,0.64,2.03,1.63c1.35,1,2.39,1.72,3.1,2.18
		l1.29,0.68l1.5-0.54c2.99-1.27,5.78-2.99,8.35-5.17c3.43-3.26,6.42-6.71,8.99-10.34c1.85-2.72,3.21-4.22,4.07-4.49
		c0.14,0,0.21,0.05,0.21,0.14v0.27l-0.21,0.27h0.21l0.43-0.27c0.14-0.18,0.35-0.27,0.64-0.27h0.43v-0.14c0-0.18,0.14-0.27,0.43-0.27
		c0.43,0,0.78,0.23,1.07,0.68v0.41c0,1.9-2,5.8-5.99,11.7c-6,7.07-13.14,10.61-21.41,10.61H647.41z M643.99,184.1
		c1.43-1.09,2.36-1.86,2.78-2.31c0.29-0.27,0.5-0.41,0.64-0.41c0.14,0,0.43-0.27,0.86-0.82c0.43-0.54,0.85-1.23,1.28-2.04
		c1.85-2.81,2.78-5.21,2.78-7.21v-1.22l-0.43-1.5l-1.28,0.41c-2,0.91-3.85,2.31-5.57,4.22c-2.29,2.81-3.78,5.4-4.5,7.75
		c-0.29,0.64-0.43,1.22-0.43,1.77c-0.15,0.36-0.22,0.63-0.22,0.82c0,0.36,0.22,0.59,0.64,0.68c0.28,0.09,0.43,0.18,0.43,0.27h-0.21
		c-0.29,0-0.57,0.32-0.86,0.95c0,0.09,0.07,0.18,0.22,0.27c0.14,0.09,0.28,0.13,0.43,0.13C641.13,185.87,642.27,185.28,643.99,184.1
		"/>
	<path class="st11" d="M675.03,209.13c-1.57-0.27-2.71-1.04-3.43-2.31c-1-1.36-1.71-2.9-2.14-4.63c-0.43-1.72-0.64-4.4-0.64-8.03
		c0-4.26,0.21-8.7,0.64-13.33c0.28-1,0.43-2.08,0.43-3.27c0.86-5.8,1.57-9.93,2.14-12.38c0.43-1.09,0.78-1.77,1.07-2.04
		c0.28-0.27,0.86-0.41,1.71-0.41c0.86,0,1.43,0.09,1.71,0.27c0,0.09,0.35,0.14,1.07,0.14c0.28-0.09,0.57-0.14,0.86-0.14
		c0.28,0,0.43,0.05,0.43,0.14c0.28,0.18,0.78,0.41,1.5,0.68c0.57,0.18,0.93,0.36,1.07,0.55c0.14,0.18,0.21,0.68,0.21,1.49
		c0,0.91-0.07,2.58-0.21,5.03c-0.14,1.9-0.36,3.36-0.64,4.35c0,0.91-0.22,6.03-0.65,15.37v1.09c0,0.82,0.07,1.27,0.22,1.36
		c0.14,0,0.28-0.27,0.43-0.82c1.28-3.35,3.57-7.21,6.85-11.56c0.85-1.36,1.28-2.08,1.28-2.17c0-0.18,0.78-0.96,2.35-2.31
		c1.57-1.36,2.85-2.4,3.86-3.13c1.71-1.18,3.64-1.77,5.78-1.77c0.43,0,0.93,0.05,1.5,0.14c3.28,0.45,5.42,1.5,6.42,3.13
		c1.14,2.27,1.71,3.67,1.71,4.22v0.13c0,0.27,0.07,0.73,0.21,1.36c0.28,1.09,0.57,2.45,0.86,4.08c0.71,4.45,1.64,8.39,2.78,11.83
		c0.57,1.81,1.03,3.04,1.39,3.67c0.35,0.64,0.75,0.95,1.18,0.95c1.29,0,1.93,0.32,1.93,0.95c0,0.46-0.5,0.82-1.5,1.09
		c-0.86,0.18-1.71,0.27-2.57,0.27c-1.14,0-2.43-0.22-3.85-0.68c-1.57-0.36-2.71-1.13-3.43-2.31c-1.86-3.17-3.21-6.85-4.07-11.02
		c-0.29-1.54-0.43-2.45-0.43-2.72c0-0.27-0.14-1.54-0.43-3.81c-0.29-2.36-0.43-3.58-0.43-3.67c0-0.18-0.07-0.86-0.21-2.04
		c0-1.09-0.14-1.72-0.43-1.9c-0.29,0-1.14,0.68-2.57,2.04c-1.43,1.36-2.57,2.72-3.43,4.08c-0.43,0.73-0.93,1.5-1.5,2.31
		c-3.85,5.98-6.28,12.01-7.28,18.09c-0.42,3.17-0.82,5.22-1.18,6.12c-0.36,0.91-0.96,1.45-1.82,1.63c-1,0.36-2.21,0.54-3.64,0.54
		C678.46,209.81,676.74,209.58,675.03,209.13"/>
	<path class="st11" d="M724.7,214.57c-1-0.27-1.64-0.63-1.93-1.09c-0.86-2.36-1.71-5.35-2.57-8.98c-0.14-0.82-0.36-1.45-0.64-1.9
		c-0.72-3.72-1.07-9.02-1.07-15.92c0-7.43,0.43-15.59,1.28-24.48c0.14-0.63,0.21-1.13,0.21-1.49c0-0.46-0.14-0.64-0.43-0.55h-0.43
		c-0.43,0-1.64,0.09-3.64,0.27c-2,0.18-3.42,0.27-4.28,0.27c-7.28,0.54-12.06,0.81-14.35,0.81h-0.86c-1.42-0.81-2.14-1.72-2.14-2.72
		c0-0.36,0.14-0.59,0.43-0.68c0.72-0.18,1.79-0.27,3.21-0.27c3.57-0.18,7.14-0.45,10.71-0.82c1-0.09,3.21-0.27,6.64-0.54
		c3.71-0.18,5.57-0.54,5.57-1.09c0-0.27,0.07-0.68,0.22-1.23c0-0.27,0.07-1.45,0.21-3.54c0.14-1.36,0.25-2.22,0.32-2.58
		c0.07-0.36,0.39-0.59,0.97-0.68c0.28-0.09,0.57-0.14,0.85-0.14c0.28,0,0.5,0.09,0.64,0.27c0.57,0.27,1.07,0.41,1.5,0.41
		c0.14,0,0.21-0.04,0.21-0.14c0-0.09,0.07-0.14,0.21-0.14c0.86,0,2.28,0.54,4.28,1.63c0.14,0.64,0.22,1.72,0.22,3.26
		c0.14,1,0.25,1.7,0.32,2.11c0.07,0.41,0.18,0.61,0.32,0.61h0.21c0.29,0,3.49-0.04,9.64-0.13c2.14-0.09,3.99-0.14,5.56-0.14
		c3.86,0,6.64,0.14,8.35,0.41c1.71,0.27,2.57,0.59,2.57,0.95v0.27c0,0.27,0.07,0.5,0.21,0.68c0.28,0,0.43,0.27,0.43,0.82
		c0,0.64-0.36,0.95-1.07,0.95c-0.43,0.09-0.79,0.14-1.07,0.14c-1,0-1.57-0.18-1.71-0.54c0-0.09-0.64-0.14-1.93-0.14
		c-2.86,0-8.57,0.27-17.13,0.82c-2.86,0.18-4.5,0.36-4.92,0.54c-0.14,0.27-0.29,0.82-0.43,1.63v2.18
		c-0.57,5.9-0.86,14.15-0.86,24.76c0,4.81,0.03,8.93,0.11,12.38c0.07,3.45,0.21,6.1,0.43,7.96c0.21,1.86,0.46,2.88,0.75,3.06
		c0.14,0.09,0.22,0.27,0.22,0.54c0,0.64-0.29,1.27-0.86,1.9c-1.14,0.27-2.14,0.41-3,0.41C725.63,214.7,725.13,214.66,724.7,214.57"
		/>
	<path class="st11" d="M753.29,206.14c-3-0.27-5.85-0.86-8.56-1.77c-2.57-1.18-4.57-2.45-5.99-3.81c-2.86-2.99-4.57-6.03-5.14-9.11
		c-0.14-0.73-0.21-1.63-0.21-2.72c0-1.72,0.14-3.22,0.43-4.49c0.43-1.27,0.71-2.31,0.86-3.13c0-0.27,0.07-0.5,0.21-0.68
		c0.28-0.18,0.43-0.45,0.43-0.82c0-0.73,0.86-2.49,2.57-5.3c0.28,0,0.43-0.05,0.43-0.14h-0.21v-0.14c0-0.36,1-1.54,2.99-3.54
		c2.28-2.08,4.71-3.49,7.28-4.22c1.14-0.45,2.43-0.68,3.85-0.68c0.71,0,1.57,0.05,2.57,0.14c2.85,0,5.21,0.36,7.06,1.09
		c3.43,1,5.36,2.31,5.78,3.95c0.28,0.64,0.43,1.31,0.43,2.04c0,1.18-0.43,2.58-1.28,4.22c-4.57,7.71-10.92,11.56-19.06,11.56h-2.57
		l0.21,1.63c0.85,3.99,2.07,6.76,3.64,8.3c0.29,0.18,0.43,0.36,0.43,0.54c0,0.09,0.67,0.64,2.03,1.63c1.36,1,2.39,1.72,3.1,2.18
		l1.28,0.68l1.5-0.54c3-1.27,5.78-2.99,8.35-5.17c3.42-3.26,6.42-6.71,8.99-10.34c1.85-2.72,3.21-4.22,4.07-4.49
		c0.14,0,0.21,0.05,0.21,0.14v0.27l-0.21,0.27h0.21l0.43-0.27c0.14-0.18,0.35-0.27,0.64-0.27h0.43v-0.14c0-0.18,0.14-0.27,0.43-0.27
		c0.43,0,0.78,0.23,1.07,0.68v0.41c0,1.9-2,5.8-6,11.7c-5.99,7.07-13.13,10.61-21.41,10.61H753.29z M749.86,184.1
		c1.43-1.09,2.35-1.86,2.78-2.31c0.29-0.27,0.5-0.41,0.64-0.41c0.14,0,0.43-0.27,0.86-0.82c0.43-0.54,0.86-1.23,1.28-2.04
		c1.85-2.81,2.79-5.21,2.79-7.21v-1.22l-0.43-1.5L756.5,169c-2,0.91-3.85,2.31-5.57,4.22c-2.29,2.81-3.78,5.4-4.5,7.75
		c-0.29,0.64-0.43,1.22-0.43,1.77c-0.14,0.36-0.21,0.63-0.21,0.82c0,0.36,0.21,0.59,0.64,0.68c0.28,0.09,0.43,0.18,0.43,0.27h-0.22
		c-0.29,0-0.57,0.32-0.86,0.95c0,0.09,0.07,0.18,0.21,0.27c0.14,0.09,0.28,0.13,0.43,0.13C747,185.87,748.15,185.28,749.86,184.1"/>
	<path class="st11" d="M813.97,209.49c-2.14-0.52-4-2.73-5.57-6.62c-0.86-2.1-1.28-6.62-1.28-13.55v-4.41
		c0.14-2.94,0.21-5.38,0.21-7.33c0-1.94,0.07-2.97,0.21-3.07c0-0.21,0.14-1,0.43-2.36c0.14-3.04,0.85-4.62,2.14-4.73
		c0.43-0.1,0.78-0.16,1.07-0.16c0.43,0,0.85,0.11,1.28,0.32c0.43,0.21,0.71,0.32,0.86,0.32c0.14,0,0.21-0.1,0.21-0.32
		c0-0.32,0.14-0.47,0.43-0.47c0.28,0,0.71,0.16,1.28,0.47c0.72,0.32,1.14,0.47,1.29,0.47l1.07,0.16l1.07,0.16l-0.21,6.15
		c-0.29,4.41-0.43,8.77-0.43,13.08c0,9.04,0.43,14.81,1.29,17.33c0,0.11,0.5,0.16,1.5,0.16c0.86-0.1,1.29,0.16,1.29,0.79v0.63
		c0,1.68-1.29,2.73-3.85,3.15c-0.72,0.11-1.29,0.16-1.71,0.16C815.82,209.81,814.96,209.71,813.97,209.49 M813.32,161.87
		c-2-0.47-3.07-1.09-3.21-1.88c-0.29-0.7-0.43-1.21-0.43-1.52c-0.29-1.48-0.43-3.08-0.43-4.8v-1.4c0.14-0.55,0.64-0.82,1.5-0.82
		c0.43-0.08,0.71-0.12,0.86-0.12c0.43,0,0.71,0.08,0.85,0.24c0.43,0.08,0.86,0.12,1.29,0.12c0.29,0,0.5-0.04,0.64-0.12
		c0-0.16,0.28-0.2,0.85-0.12c0.57,0.08,0.86,0.2,0.86,0.35c0,0.08,0.5,0.2,1.5,0.35c0.86,0,1.42,0.12,1.71,0.35
		c0.14,0.08,0.21,0.27,0.21,0.59c0,0.63-0.21,1.64-0.64,3.05c-0.57,2.34-0.86,3.83-0.86,4.45v0.59c0,0.39-0.29,0.63-0.85,0.7
		c-0.72,0.08-1.43,0.12-2.14,0.12C814.32,161.99,813.75,161.95,813.32,161.87"/>
	<path class="st11" d="M832.59,209.13c-1.57-0.27-2.71-1.04-3.42-2.31c-1-1.36-1.71-2.9-2.14-4.63c-0.43-1.72-0.64-4.4-0.64-8.03
		c0-4.26,0.21-8.7,0.64-13.33c0.29-1,0.43-2.08,0.43-3.27c0.86-5.8,1.57-9.93,2.14-12.38c0.43-1.09,0.78-1.77,1.07-2.04
		c0.28-0.27,0.86-0.41,1.71-0.41c0.86,0,1.43,0.09,1.71,0.27c0,0.09,0.35,0.14,1.07,0.14c0.29-0.09,0.57-0.14,0.86-0.14
		c0.28,0,0.43,0.05,0.43,0.14c0.29,0.18,0.78,0.41,1.5,0.68c0.57,0.18,0.93,0.36,1.07,0.55c0.14,0.18,0.21,0.68,0.21,1.49
		c0,0.91-0.07,2.58-0.21,5.03c-0.14,1.9-0.36,3.36-0.64,4.35c0,0.91-0.21,6.03-0.64,15.37v1.09c0,0.82,0.07,1.27,0.22,1.36
		c0.14,0,0.28-0.27,0.43-0.82c1.28-3.35,3.57-7.21,6.85-11.56c0.86-1.36,1.28-2.08,1.28-2.17c0-0.18,0.78-0.96,2.35-2.31
		c1.57-1.36,2.85-2.4,3.86-3.13c1.71-1.18,3.64-1.77,5.78-1.77c0.43,0,0.93,0.05,1.5,0.14c3.28,0.45,5.42,1.5,6.42,3.13
		c1.14,2.27,1.71,3.67,1.71,4.22v0.13c0,0.27,0.07,0.73,0.22,1.36c0.28,1.09,0.57,2.45,0.85,4.08c0.71,4.45,1.64,8.39,2.78,11.83
		c0.57,1.81,1.03,3.04,1.39,3.67c0.35,0.64,0.75,0.95,1.18,0.95c1.29,0,1.93,0.32,1.93,0.95c0,0.46-0.5,0.82-1.5,1.09
		c-0.86,0.18-1.71,0.27-2.57,0.27c-1.14,0-2.43-0.22-3.85-0.68c-1.57-0.36-2.72-1.13-3.43-2.31c-1.86-3.17-3.21-6.85-4.07-11.02
		c-0.29-1.54-0.43-2.45-0.43-2.72c0-0.27-0.15-1.54-0.43-3.81c-0.29-2.36-0.43-3.58-0.43-3.67c0-0.18-0.08-0.86-0.22-2.04
		c0-1.09-0.14-1.72-0.43-1.9c-0.29,0-1.15,0.68-2.57,2.04c-1.43,1.36-2.57,2.72-3.43,4.08c-0.43,0.73-0.93,1.5-1.5,2.31
		c-3.85,5.98-6.28,12.01-7.28,18.09c-0.43,3.17-0.82,5.22-1.18,6.12c-0.36,0.91-0.96,1.45-1.82,1.63c-1,0.36-2.22,0.54-3.64,0.54
		C836.02,209.81,834.31,209.58,832.59,209.13"/>
	<path class="st11" d="M889.79,206c-3.85-0.82-6.78-2.17-8.78-4.08c-0.86-0.9-1.57-1.49-2.14-1.77c-0.15,0-0.21-0.05-0.21-0.14h0.21
		v-0.14c0-0.18-0.15-0.55-0.43-1.09c-1.29-2.27-2.21-4.49-2.78-6.67c-0.29-0.91-0.43-1.68-0.43-2.31c-0.14-0.73-0.21-1.5-0.21-2.31
		c0-0.82,0.07-1.68,0.21-2.58c0.14-1,0.21-1.54,0.21-1.63c0-0.27,0.07-0.54,0.22-0.82c0.28-0.45,0.42-0.86,0.42-1.22
		c0.29-0.63,0.71-1.63,1.29-2.99c0.71-1.45,1.07-2.22,1.07-2.31c0-0.18,0.28-0.5,0.86-0.95c0.43-0.45,0.64-0.82,0.64-1.09
		s0.14-0.45,0.43-0.54c0.29,0,0.43-0.05,0.43-0.14c0-0.45,0.64-1.13,1.93-2.04l0.22-0.27c0-0.72,2.14-2.08,6.42-4.08
		c1.43-0.45,3.07-0.68,4.93-0.68c2.71,0,5.57,0.5,8.56,1.5c3.71,1.18,5.57,3.04,5.57,5.58v0.82c0,2.99-1.5,4.62-4.5,4.9
		c-0.72,0-1.5-0.14-2.36-0.41l-0.85-0.27c1-0.72,1.5-1.95,1.5-3.67v-0.54c0-0.18-0.07-0.77-0.21-1.77c0-0.72-0.21-1.22-0.64-1.49
		c-0.14,0-0.29-0.14-0.43-0.41c0-0.18-0.29-0.54-0.85-1.09c-0.43-0.36-0.86-0.54-1.29-0.54c-0.29,0-0.64,0.05-1.07,0.13
		c-2.28,0.91-4.42,2.36-6.42,4.35c-1.14,1.09-1.71,1.72-1.71,1.9l-0.64,1.22c-2.14,3.36-3.21,6.98-3.21,10.88
		c0,5.8,2.21,10.74,6.64,14.83c2.28,1.45,3.85,2.18,4.71,2.18c0.29,0,1.18-0.48,2.68-1.43c1.49-0.95,2.74-1.84,3.74-2.65
		c1-0.82,1.57-1.23,1.71-1.23c0.28,0,0.43-0.09,0.43-0.27c0-0.18,0.64-0.95,1.93-2.31l1.93-1.9c-0.15,0-0.21-0.04-0.21-0.14
		l0.21-0.14c0.28-0.18,0.57-0.41,0.86-0.68c2-2.27,3.57-4.03,4.71-5.31c0.57-0.82,0.93-1.22,1.07-1.22
		c1.14-1.27,1.71-2.08,1.71-2.45c0.43-0.63,1.28-1.63,2.57-2.99c0.29-0.72,1.14-1.09,2.57-1.09c0.86,0,1.79,0.09,2.79,0.27
		c0.71,0.18,1.07,0.41,1.07,0.68c0,0.09-0.08,0.23-0.21,0.41c-0.29,0.54-0.64,1.27-1.07,2.18c-0.57,1-1,1.77-1.28,2.31
		c-0.43,0.64-1.15,1.77-2.14,3.4c-5,8.43-10.49,13.6-16.48,15.51c-3,1-6.14,1.5-9.42,1.5C894.07,206.68,891.93,206.46,889.79,206"/>
	<path class="st11" d="M925.76,206.68c-1.29-0.09-2.14-0.68-2.57-1.77c-1.15-1.99-1.93-4.08-2.36-6.26c-0.29-0.9-0.43-1.54-0.43-1.9
		c-0.29-0.9-0.57-2.45-0.86-4.62c-0.15-1.54-0.22-3.76-0.22-6.67c0-2.9,0.07-4.99,0.22-6.26c0-0.45,0.14-1.72,0.43-3.81
		c0.28-2.17,0.43-3.31,0.43-3.4l0.43-2.04c0.57-2.81,1.21-4.85,1.93-6.12c0.28-0.09,0.71-0.14,1.29-0.14c0.85,0,1.57,0.09,2.14,0.27
		c0.28,0.18,0.5,0.27,0.64,0.27l0.21-0.14c0-0.09,0.07-0.13,0.21-0.13c0.43,0,1.14,0.13,2.14,0.41l2.14,0.54l-0.22,1.22
		c-0.85,5.26-1.28,8.52-1.28,9.79v0.27c0.14,0,0.71-0.63,1.71-1.9c2.14-2.99,4.5-4.49,7.06-4.49h0.64c2.85,0.18,5.06,1.22,6.64,3.13
		c3.14,3.08,5.42,4.62,6.85,4.62h0.43c0.43,0,0.64,0.05,0.64,0.14c0,0.27-0.79,0.5-2.36,0.68c-2.71,0-5.93-1.68-9.63-5.03
		c-1-1-1.64-1.5-1.93-1.5c-1.14,0.9-2.78,2.9-4.92,5.99c-2,2.63-3,7.89-3,15.78c0,5.17,0.43,9.07,1.29,11.7v0.27
		c0,0.36-0.5,0.64-1.5,0.82c-1.29,0.36-2.57,0.54-3.86,0.54C927.4,206.95,926.62,206.86,925.76,206.68"/>
	<path class="st11" d="M965.15,205.32c-2.14-0.55-4-2.45-5.57-5.71c-0.86-1.81-1.28-5.71-1.28-11.7v-3.95c0-1.63,0.04-3.1,0.11-4.42
		c0.07-1.31,0.18-2.79,0.32-4.42c0-0.18,0.14-0.86,0.43-2.04c0.14-2.81,0.86-4.22,2.14-4.22c0.43-0.09,0.78-0.13,1.07-0.13
		c0.43,0,0.86,0.09,1.29,0.27c0.43,0.18,0.71,0.27,0.86,0.27c0.14,0,0.22-0.09,0.22-0.27c0-0.27,0.14-0.41,0.43-0.41
		c0.14,0,0.57,0.18,1.28,0.54c0.71,0.27,1.14,0.41,1.29,0.41h1.07l1.07,0.27l-0.21,5.17c-0.29,3.81-0.43,7.57-0.43,11.29
		c0,7.8,0.43,12.83,1.29,15.1l1.5,0.14c1,0,1.43,0.18,1.29,0.54v0.68c0,1.36-1.29,2.22-3.85,2.59c-0.72,0.18-1.36,0.27-1.93,0.27
		C966.94,205.59,966.15,205.5,965.15,205.32 M962,165.39c-0.9-0.23-1.34-0.51-1.34-0.85c0-0.23,0.45-0.46,1.34-0.68
		c1.25,0,2.33-0.62,3.23-1.88c1.97-3.08,2.96-5.41,2.96-7v-0.68c0-0.34,1.34-0.57,4.03-0.68c0.89-0.11,1.61-0.17,2.15-0.17
		c1.08,0,1.7,0.23,1.88,0.68c0.36,0.34,0.54,0.74,0.54,1.2c0,2.05-1.52,4.61-4.57,7.69c-2.15,1.82-4.48,2.73-6.99,2.73
		C964.15,165.73,963.08,165.62,962,165.39"/>
	<path class="st11" d="M991.92,204.91c-0.14,0-0.86-0.09-2.14-0.27c-1.28-0.09-2.43-0.45-3.42-1.09c-0.86-0.73-1.82-1.61-2.89-2.65
		c-1.07-1.04-1.6-1.65-1.6-1.84c0-0.18-0.43-0.77-1.28-1.77c-2.43-2.9-4.28-6.85-5.57-11.84c-0.86-2.36-1.36-5.39-1.5-9.11
		l-0.22-4.35l1.28-0.27c0.43-0.09,0.86-0.14,1.29-0.14c0.28,0,0.71,0.05,1.29,0.14c0.28,0.09,0.57,0.14,0.85,0.14
		c0.29,0,0.43-0.05,0.43-0.14c0-0.18,0.29-0.27,0.86-0.27c0.43,0,0.71,0.09,0.86,0.27c0,0.09,0.28,0.18,0.85,0.27
		c0.43,0,1.07,0.14,1.93,0.41c0.57,0,0.96,0.29,1.17,0.88c0.22,0.59,0.46,2.06,0.75,4.42c0.28,1.18,0.43,1.86,0.43,2.04
		c0.29,0.45,0.43,1.09,0.43,1.9c0.29,0.91,0.5,1.63,0.64,2.18c0.28,0.54,0.43,0.95,0.43,1.22c0,0.27,0.14,0.81,0.43,1.63
		c0.43,0.91,0.64,1.5,0.64,1.77c0,0.27,0.07,0.45,0.21,0.54l0.21,0.41c0.71,1.63,1.93,3.72,3.64,6.26c0.43,0.64,0.82,1.2,1.18,1.7
		c0.35,0.5,0.53,0.8,0.53,0.88c0,0.27,0.14,0.41,0.43,0.41c0.14,0,0.46-0.29,0.96-0.88s0.75-1.07,0.75-1.43v-0.27
		c0-0.09,0.07-0.14,0.22-0.14c0.28,0,0.43-0.04,0.43-0.14v-0.14c0-0.63,0.43-1.95,1.28-3.94c0.71-1.36,1.36-3.13,1.93-5.3
		c0.71-1.99,1.35-3.72,1.93-5.17c0.28-0.54,0.5-1.18,0.64-1.9c0.29-1.09,0.5-1.9,0.64-2.45c0.28-0.36,0.5-0.91,0.64-1.63
		c1.14-2.54,2.14-4.62,3-6.26c0.28-0.36,0.57-0.86,0.86-1.5c0.28-0.63,0.64-1.04,1.07-1.23c0.71-0.18,1.64-0.27,2.78-0.27
		c0.86,0,1.43,0.05,1.71,0.14v0.27c0,0.27-0.07,0.68-0.21,1.23c-0.43,1-0.85,2.63-1.28,4.9c-1.28,5.8-2.93,12.2-4.92,19.18
		c-1.86,7.16-4,11.11-6.42,11.83c-3,1-5.43,1.5-7.28,1.5C992.34,205.05,992.06,205,991.92,204.91"/>
	<path class="st11" d="M1037.09,206.14c-3-0.27-5.85-0.86-8.56-1.77c-2.57-1.18-4.57-2.45-5.99-3.81c-2.86-2.99-4.57-6.03-5.14-9.11
		c-0.14-0.73-0.21-1.63-0.21-2.72c0-1.72,0.14-3.22,0.43-4.49c0.43-1.27,0.71-2.31,0.86-3.13c0-0.27,0.07-0.5,0.21-0.68
		c0.28-0.18,0.43-0.45,0.43-0.82c0-0.73,0.85-2.49,2.57-5.3c0.28,0,0.43-0.05,0.43-0.14h-0.21v-0.14c0-0.36,1-1.54,2.99-3.54
		c2.28-2.08,4.71-3.49,7.28-4.22c1.14-0.45,2.42-0.68,3.85-0.68c0.71,0,1.57,0.05,2.57,0.14c2.86,0,5.21,0.36,7.07,1.09
		c3.42,1,5.35,2.31,5.78,3.95c0.28,0.64,0.43,1.31,0.43,2.04c0,1.18-0.43,2.58-1.28,4.22c-4.57,7.71-10.92,11.56-19.06,11.56h-2.57
		l0.21,1.63c0.86,3.99,2.07,6.76,3.64,8.3c0.29,0.18,0.43,0.36,0.43,0.54c0,0.09,0.68,0.64,2.03,1.63c1.35,1,2.39,1.72,3.1,2.18
		l1.29,0.68l1.5-0.54c3-1.27,5.78-2.99,8.35-5.17c3.42-3.26,6.42-6.71,8.99-10.34c1.85-2.72,3.21-4.22,4.07-4.49
		c0.14,0,0.21,0.05,0.21,0.14v0.27l-0.21,0.27h0.21l0.43-0.27c0.14-0.18,0.35-0.27,0.64-0.27h0.43v-0.14c0-0.18,0.14-0.27,0.43-0.27
		c0.43,0,0.78,0.23,1.07,0.68v0.41c0,1.9-2,5.8-5.99,11.7c-5.99,7.07-13.13,10.61-21.41,10.61H1037.09z M1033.66,184.1
		c1.43-1.09,2.36-1.86,2.78-2.31c0.28-0.27,0.5-0.41,0.64-0.41c0.14,0,0.43-0.27,0.86-0.82c0.43-0.54,0.86-1.23,1.28-2.04
		c1.85-2.81,2.78-5.21,2.78-7.21v-1.22l-0.43-1.5l-1.28,0.41c-2,0.91-3.85,2.31-5.57,4.22c-2.29,2.81-3.78,5.4-4.49,7.75
		c-0.29,0.64-0.43,1.22-0.43,1.77c-0.14,0.36-0.21,0.63-0.21,0.82c0,0.36,0.21,0.59,0.64,0.68c0.28,0.09,0.43,0.18,0.43,0.27h-0.22
		c-0.29,0-0.57,0.32-0.85,0.95c0,0.09,0.07,0.18,0.21,0.27c0.14,0.09,0.28,0.13,0.43,0.13
		C1030.8,185.87,1031.95,185.28,1033.66,184.1"/>
	<path class="st11" d="M1066.85,206.74c-1.71-0.39-3.29-1.87-4.71-4.43c-1.71-3.73-2.86-8.01-3.43-12.84
		c-0.14-2.49-0.21-5.33-0.21-8.52c0-5.83,0.21-10.39,0.64-13.65c0.28-1.24,0.57-3.73,0.86-7.47c0-2.49,0.14,1.5,0.43,0.72
		c0.71-3.58,1.07-6.92,1.07-10.04c0-0.7,0.14-1.17,0.43-1.4c0-0.16,0.07-0.74,0.21-1.75c0.14-1.17,0.21-1.91,0.21-2.22
		c0.14-0.7,0.22-1.2,0.22-1.52c0-0.31,0.07-0.47,0.21-0.47h0.43c0.14,0,0.21-0.04,0.21-0.12c0-0.16,0.14-0.2,0.43-0.12
		c0.43,0,1.07,0.16,1.93,0.47l1.07,0.58v-0.58c0-0.16,0.07-0.23,0.21-0.23c0.14,0.23,0.43,0.35,0.86,0.35c0.28,0,0.5,0.08,0.64,0.23
		c0,0.08,0.14,0.16,0.43,0.23c0.43,0,0.93,0.11,1.5,0.35c0.43,0.16,0.71,0.35,0.85,0.58c0.14,0.23,0.21,0.82,0.21,1.75
		c0,0.93-0.07,2.26-0.21,3.97c0,3.11-0.07,5.41-0.22,6.89c0,1.17-0.21-1.54-0.64,3.13c-0.29,1.87-0.43,3.85-0.43,5.95
		c-0.14,2.57-0.36,4.67-0.64,6.3c-0.14,3.42-0.21,7.43-0.21,12.02c0,3.35,0.07,5.76,0.21,7.24c0.29,1.4,0.5,3.07,0.64,5.02
		c0.28,2.1,0.93,4.32,1.93,6.65c0.14,0.31,0.64,0.47,1.5,0.47c0.57,0,0.86,0.08,0.86,0.23c0,0.16-0.08,0.31-0.22,0.47
		c0,0.47-0.08,0.82-0.21,1.05c0,0.47-1.36,0.82-4.07,1.05C1068.99,207.09,1067.99,206.97,1066.85,206.74"/>
	<path class="st11" d="M1093.15,211.19c-2.42-0.43-3.77-0.95-4.03-1.55c-0.38-1.28-0.53-2.75-0.43-4.39
		c0.04-0.67,0.15-1.2,0.32-1.58c0.19-0.67,0.75-1.02,1.67-1.07c0.47-0.17,0.85-0.24,1.16-0.22l0.22,0.16c0.3,0.11,0.6,0.18,0.9,0.2
		c0.3,0.02,0.61-0.06,0.93-0.24c0.01-0.1,0.16-0.14,0.46-0.12c0.15,0.01,0.37,0.07,0.68,0.18c0.59,0.23,1.2,0.36,1.81,0.4
		c1.38-0.11,2.02,0.75,1.91,2.59l-0.1,1.6c-0.26,1.83-0.55,2.98-0.89,3.44c-0.95,0.53-2.18,0.75-3.7,0.66L1093.15,211.19z
		 M1092.72,195.15c-0.76-0.14-1.24-0.46-1.44-0.96c-0.2-0.49-0.4-1.67-0.59-3.53c-0.23-1.27-0.37-2.96-0.39-5.05
		c-0.03-2.09,0.09-5.45,0.36-10.1c0.37-6.38,0.77-11.84,1.18-16.38c0.5-3.27,0.91-6.4,1.24-9.39c0.31-2.8,0.58-4.72,0.79-5.78
		l0.14-2.32c-0.27-0.69,0.29-1,1.66-0.92c0.76,0.04,1.44,0.23,2.03,0.55c0.29,0.21,0.52,0.32,0.67,0.33
		c0.15,0.01,0.31-0.08,0.47-0.26c0.16-0.18,0.4-0.27,0.7-0.25c0.15,0.01,0.38,0.07,0.68,0.19c0.58,0.42,0.96,0.64,1.11,0.65
		c0.46,0.03,1.05,0.21,1.8,0.54l1.11,0.65l-0.53,5.21c-1.34,22.92-2.69,38.18-4.05,45.77c-0.68,1.12-2.08,1.62-4.21,1.5
		C1094.53,195.55,1093.62,195.4,1092.72,195.15"/>
	<path class="st11" d="M272.4,216.17c-1.01-0.29-1.63-1.64-1.87-4.04c0.04-0.87-0.04-1.78-0.22-2.73c0.03-0.65-0.03-2-0.17-4.04
		c0.07-1.52,0.02-3.05-0.15-4.58c-0.05-6.76,0.08-13.81,0.39-21.15c0.17-4.07,0.35-6.98,0.54-8.72c0.28-1.38,0.47-3.09,0.56-5.12
		c0.51-4.07,0.97-8.25,1.38-12.54c0.5-3.78,0.83-6.29,1-7.52c0.17-1.23,0.38-2.22,0.64-2.94c0.05-1.24,0.47-1.85,1.27-1.85h0.51
		c0.45,0,0.85,0.07,1.18,0.22c0.22,0.07,0.45,0.11,0.67,0.11c0.11,0,0.17-0.04,0.17-0.11c0.12-0.15,0.23-0.22,0.35-0.22
		c0.11,0,0.34,0.07,0.67,0.22c0.67,0.22,1.4,0.36,2.19,0.43c0.9,0.15,1.4,0.22,1.52,0.22c0,0.07,0.2,0.58,0.61,1.53
		c1.12,2.91,2.1,5.2,2.93,6.87c0.73,1.31,1.1,2.04,1.1,2.18c1.03,2.4,2.02,4.36,2.97,5.89c0.22,0.15,0.33,0.29,0.32,0.44
		c-0.01,0.22,0.15,0.55,0.47,0.98c0.21,0.51,0.47,0.98,0.79,1.42c0.2,0.51,0.47,0.98,0.79,1.42c0.32,0.44,0.74,1.24,1.26,2.4
		c0.74,1.24,1.16,1.86,1.28,1.86c0.22,0.15,0.33,0.29,0.32,0.43c-0.01,0.22,0.15,0.58,0.46,1.09c0.32,0.44,0.69,1.09,1.11,1.96
		c0.42,0.8,1,1.71,1.75,2.73c1.28,1.82,1.86,2.83,1.74,3.05c-0.01,0.14,0.1,0.32,0.32,0.54c0.43,0.44,0.65,0.76,0.64,0.98
		c0.1,0.29,0.39,0.8,0.87,1.53c0.48,0.73,1.14,1.74,1.99,3.05c0.53,0.8,1.17,1.85,1.9,3.16c0.96,1.38,1.54,2.33,1.75,2.84
		c0.75,0.94,1.23,1.62,1.44,2.02c0.21,0.4,0.31,0.64,0.31,0.71c0,0.07,0.18,0.36,0.56,0.87c0.37,0.51,0.83,1.13,1.36,1.85
		c1.17,1.74,2.29,3.42,3.35,5.02c1.07,1.45,1.77,2.33,2.09,2.62c0.22,0.22,0.43,0.51,0.64,0.87c0.21,0.29,0.37,0.51,0.48,0.66
		c0.76,0.65,1.52,1.6,2.26,2.84c0.32,0.36,0.54,0.54,0.65,0.54c0.23,0,0.5,0.22,0.82,0.65c0.21,0.36,0.37,0.54,0.49,0.54h0.17
		c1.09-1.74,1.89-5.96,2.4-12.65c0.15-3.64,0.21-10.36,0.18-20.18c-0.01-2.54,0.1-6.29,0.31-11.23c0.21-5.02,0.41-8.43,0.6-10.25
		c0.14-0.72,0.33-2.51,0.56-5.34c0.22-2.47,0.41-4.38,0.58-5.73c0.17-1.35,0.32-2.16,0.45-2.45c0.02-0.36,0.36-0.51,1.04-0.43h1.02
		c0.34,0,0.68-0.04,1.02-0.11c0.12-0.15,0.23-0.22,0.35-0.22c0.11,0,0.22,0.07,0.33,0.22c0,0.07,0.33,0.14,1.01,0.22
		c1.24,0,1.7,1.24,1.37,3.71l-0.18,4.25c-0.08,1.82-0.23,4.03-0.45,6.65l-0.61,14.4c0.11,0,0.15,0.49,0.11,1.47
		c-0.04,0.98-0.04,2.2,0.01,3.65c-0.12,2.84-0.21,6.33-0.27,10.47c0.02,4.73-0.03,8.65-0.16,11.78c-0.18,4.36-0.47,7.05-0.85,8.07
		c-0.14,0.58-0.33,1.09-0.57,1.53c-0.49,3.57-2.34,5.74-5.54,6.55c-0.7,0.36-2.17,0.54-4.43,0.54l-2.89,0.11l-1.65-0.98
		c-1.99-1.16-3.68-2.69-5.06-4.58c-0.43-0.51-0.76-0.84-0.98-0.98c-0.33-0.22-0.54-0.51-0.64-0.87c-0.1-0.29-0.26-0.44-0.49-0.44
		c-0.11,0-0.27-0.18-0.49-0.54c-1.05-1.82-2.12-3.31-3.2-4.48c-0.22-0.15-0.33-0.33-0.32-0.55c0.01-0.22-0.2-0.62-0.63-1.2
		c-0.43-0.65-0.64-1.02-0.63-1.09c0.01-0.22-0.1-0.33-0.33-0.33c-0.11,0-0.22-0.03-0.33-0.11l0-0.11c0.01-0.15-0.15-0.47-0.47-0.98
		c-0.43-0.58-1.02-1.42-1.76-2.51c-0.86-1.24-1.27-2-1.26-2.29c-0.22-0.29-0.54-0.76-0.96-1.42c-0.31-0.65-0.47-1.02-0.46-1.09
		l-1.12-1.53c-0.75-1.09-1.12-1.67-1.11-1.75c0.01-0.15-0.25-0.69-0.78-1.64c-0.64-1.02-0.95-1.56-0.95-1.63
		c0.01-0.14-0.13-0.4-0.39-0.76c-0.27-0.36-0.77-1.13-1.51-2.29c-0.54-0.8-0.79-1.31-0.78-1.53c-0.73-1.53-1.62-3.12-2.68-4.8
		c-0.22-0.29-0.32-0.51-0.31-0.65l0.01-0.11c0.01-0.15-0.16-0.33-0.49-0.54c-0.21-0.36-0.63-1.16-1.25-2.4
		c-0.62-1.31-1.3-2.58-2.04-3.82c-0.53-0.95-1.1-2.09-1.72-3.44c-0.62-1.35-1.19-2.58-1.71-3.71c-0.52-1.13-0.78-1.73-0.77-1.8
		c0.01-0.15-0.05-0.22-0.16-0.22c-0.23,0-0.34,0.07-0.35,0.22c-0.57,2.83-1.1,10-1.59,21.48c-0.16,3.71-0.27,7.07-0.34,10.09
		c-0.07,3.02-0.12,5.6-0.16,7.74c-0.04,2.15-0.02,3.84,0.04,5.07c0.06,1.24,0.15,1.89,0.26,1.96l0.33,0.22
		c0,0.07-0.12,0.15-0.35,0.22c-0.23,0.07-0.35,0.26-0.36,0.55c-0.01,0.22,0.03,0.51,0.13,0.87c0.07,0.95,0.08,2.15,0.02,3.6
		l-0.1,2.4h0.85c0.56,0,0.9,0.04,1.01,0.11l-0.01,0.11c-0.03,0.8-0.45,2.62-1.25,5.45c-0.24,0.29-0.65,0.55-1.22,0.76
		c-0.92,0.22-1.99,0.33-3.24,0.33C273.69,216.38,272.96,216.31,272.4,216.17"/>
	<path class="st11" d="M274.59,217.19c-0.98,0-1.77-0.08-2.4-0.24c-1.39-0.4-2.19-1.95-2.47-4.74c0.03-0.91-0.04-1.76-0.21-2.65
		l-0.02-0.1l0-0.1c0.03-0.61-0.03-1.94-0.17-3.95c0.06-1.57,0.01-3.07-0.14-4.55c-0.06-6.85,0.08-13.98,0.39-21.27
		c0.17-4.06,0.35-7.02,0.54-8.77c0.28-1.41,0.47-3.09,0.55-5.07c0.51-4.04,0.97-8.25,1.38-12.58l1-7.55c0.17-1.24,0.37-2.23,0.64-3
		c0.14-2.26,1.49-2.5,2.07-2.5h0.51c0.57,0,1.07,0.1,1.5,0.29c0.02,0.01,0.06,0.01,0.1,0.02c0.28-0.25,0.57-0.3,0.77-0.3
		c0.24,0,0.53,0.08,0.99,0.29c0.55,0.17,1.22,0.31,1.94,0.37c0.85,0.14,1.32,0.21,1.46,0.21l0.79,0.04l0,0.66
		c0.04,0.12,0.17,0.45,0.55,1.31c1.12,2.91,2.1,5.2,2.91,6.83c0.87,1.55,1.1,2.07,1.16,2.34c0.96,2.22,1.89,4.08,2.79,5.54
		c0.44,0.36,0.53,0.74,0.52,1.02c0.01,0,0.05,0.13,0.31,0.48l0.1,0.18c0.18,0.44,0.41,0.86,0.69,1.24l0.1,0.18
		c0.17,0.44,0.41,0.85,0.69,1.24c0.36,0.49,0.79,1.32,1.34,2.55c0.62,1.03,0.88,1.39,0.98,1.5l0.02,0.01
		c0.58,0.39,0.69,0.83,0.68,1.14c0-0.02,0.04,0.15,0.34,0.63c0.32,0.43,0.7,1.11,1.15,2.05c0.38,0.74,0.95,1.62,1.67,2.6
		c1.47,2.1,1.91,2.94,1.92,3.45c0.02,0.02,0.03,0.03,0.05,0.06c0.54,0.54,0.81,0.97,0.86,1.37c0.07,0.16,0.26,0.52,0.75,1.26
		l1.99,3.05c0.55,0.84,1.2,1.92,1.93,3.21c0.9,1.29,1.48,2.23,1.74,2.81c0.75,0.95,1.23,1.62,1.46,2.06
		c0.24,0.45,0.34,0.7,0.38,0.88c0.07,0.12,0.21,0.32,0.42,0.6l1.36,1.85c1.19,1.77,2.31,3.45,3.37,5.05
		c1.37,1.87,1.83,2.34,1.96,2.46c0.3,0.3,0.55,0.64,0.8,1.07l0.38,0.52c0.79,0.7,1.57,1.67,2.31,2.9c0.12,0.13,0.19,0.2,0.24,0.24
		c0.41,0.08,0.74,0.37,1,0.66c0.8-2.01,1.42-5.83,1.84-11.39c0.15-3.56,0.21-10.34,0.17-20.11c-0.01-2.55,0.09-6.23,0.31-11.27
		c0.21-5.01,0.42-8.47,0.61-10.3c0.11-0.57,0.28-1.88,0.56-5.33c0.22-2.47,0.42-4.41,0.59-5.76c0.21-1.62,0.35-2.24,0.46-2.55
		c0.1-0.6,0.59-1.18,1.91-1.04l0.93,0c0.21,0,0.42-0.02,0.63-0.05c0.27-0.22,0.54-0.28,0.74-0.28c0.22,0,0.53,0.07,0.82,0.36
		c0.11,0.02,0.29,0.05,0.61,0.08c0.56-0.02,1.11,0.23,1.5,0.68c0.66,0.75,0.84,2,0.58,3.94l-0.17,4.18
		c-0.08,1.8-0.22,3.99-0.45,6.69l-0.6,14.1c0.11,0.29,0.14,0.76,0.1,1.73c-0.04,0.95-0.04,2.16,0.01,3.59
		c-0.12,2.91-0.21,6.43-0.27,10.51c0.03,4.82-0.03,8.68-0.16,11.8c-0.19,4.49-0.49,7.21-0.9,8.32c-0.11,0.5-0.3,1.03-0.55,1.5
		c-0.56,3.79-2.59,6.16-6.03,7.05c-0.85,0.4-2.35,0.59-4.72,0.59l-3.1,0.12l-1.86-1.1c-2.07-1.21-3.86-2.83-5.3-4.8
		c-0.5-0.58-0.72-0.75-0.78-0.79c-0.45-0.3-0.77-0.71-0.93-1.21c-0.41-0.11-0.69-0.5-0.93-0.91c-1-1.72-2.02-3.16-3.04-4.27
		c-0.4-0.3-0.6-0.71-0.59-1.18c0,0.03-0.07-0.16-0.47-0.7c-0.38-0.58-0.58-0.91-0.68-1.14c-0.14-0.04-0.28-0.1-0.41-0.19l-0.37-0.25
		l0.02-0.45h0c0.01,0-0.05-0.16-0.34-0.64c-0.4-0.53-0.99-1.38-1.74-2.48c-0.97-1.4-1.28-2.05-1.37-2.44
		c-0.21-0.3-0.5-0.73-0.86-1.29c-0.3-0.62-0.45-0.95-0.52-1.17l-1.04-1.41c-1.11-1.63-1.26-1.9-1.27-2.14
		c-0.04-0.11-0.19-0.44-0.68-1.33c-0.91-1.45-1.04-1.72-1.05-1.95c-0.03-0.05-0.09-0.17-0.24-0.36c-0.29-0.39-0.8-1.18-1.54-2.33
		c-0.61-0.91-0.83-1.4-0.89-1.74c-0.7-1.44-1.56-2.99-2.57-4.59c-0.27-0.35-0.41-0.67-0.43-0.98c-0.03-0.02-0.07-0.05-0.12-0.08
		l-0.16-0.1l-0.1-0.16c-0.22-0.37-0.64-1.18-1.28-2.44c-0.61-1.28-1.29-2.54-2.02-3.77c-0.54-0.97-1.13-2.14-1.76-3.51l-1.71-3.71
		c-0.02-0.03-0.03-0.07-0.05-0.11c-0.46,3.65-0.88,10.16-1.28,19.49c-0.16,3.81-0.27,7.1-0.34,10.07c-0.07,3.02-0.12,5.6-0.16,7.74
		c-0.03,2.13-0.02,3.82,0.04,5.02c0.04,0.86,0.09,1.28,0.12,1.48l0.48,0.32l-0.02,0.45c-0.01,0.39-0.25,0.69-0.71,0.88
		c0.01,0.11,0.04,0.27,0.1,0.51l0.02,0.15c0.08,0.98,0.08,2.23,0.02,3.7l-0.07,1.56h0.01c0.9,0,1.22,0.09,1.45,0.24l0.39,0.25
		l-0.02,0.46c-0.04,0.98-0.46,2.82-1.28,5.74l-0.05,0.17l-0.11,0.13c-0.34,0.41-0.85,0.73-1.55,1
		C277.05,217.07,275.9,217.19,274.59,217.19 M271.12,209.34c0.19,0.98,0.26,1.93,0.22,2.82c0.27,2.64,0.99,3.14,1.28,3.23
		c0.46,0.12,1.14,0.18,1.97,0.18c1.18,0,2.2-0.1,3.05-0.3c0.35-0.14,0.56-0.28,0.68-0.39c0.67-2.38,0.97-3.71,1.09-4.45
		c-0.04,0-0.08,0-0.13,0h-1.69l0.14-3.24c0.06-1.37,0.06-2.52-0.01-3.43c-0.11-0.41-0.15-0.75-0.14-1.04
		c0.01-0.35,0.13-0.66,0.33-0.89c-0.1-0.37-0.16-0.96-0.21-1.98c-0.06-1.25-0.08-2.93-0.04-5.12c0.03-2.14,0.08-4.73,0.16-7.75
		c0.07-2.98,0.18-6.29,0.34-10.1c0.49-11.64,1.02-18.71,1.6-21.61c0-0.35,0.37-0.87,1.14-0.87h0.34l0.35,0.29
		c0.12,0.12,0.25,0.32,0.27,0.61c0.05,0.13,0.21,0.51,0.7,1.59l1.71,3.71c0.61,1.33,1.18,2.47,1.69,3.38
		c0.74,1.25,1.44,2.55,2.07,3.86c0.53,1.05,0.91,1.78,1.14,2.19c0.29,0.21,0.71,0.59,0.68,1.15c-0.01-0.03,0.01,0.06,0.15,0.24
		c1.11,1.76,2.03,3.4,2.76,4.94l0.09,0.18l-0.01,0.2c0.01-0.04,0.08,0.2,0.65,1.05c0.74,1.16,1.23,1.9,1.49,2.26
		c0.32,0.44,0.48,0.76,0.53,1.05c0.07,0.13,0.27,0.48,0.84,1.4c0.62,1.12,0.82,1.58,0.88,1.85c0.08,0.14,0.31,0.51,0.99,1.51
		l1.27,1.73l-0.01,0.16c0.06,0.15,0.19,0.43,0.38,0.84c0.36,0.54,0.67,1,0.88,1.29l0.17,0.23l-0.01,0.29
		c0.01-0.06,0.13,0.36,1.12,1.8c0.74,1.09,1.32,1.91,1.74,2.49c0.25,0.39,0.41,0.68,0.5,0.92c0.21,0.05,0.38,0.18,0.48,0.29
		c0.12,0.12,0.26,0.33,0.29,0.63c0.05,0.1,0.19,0.33,0.51,0.82c0.5,0.68,0.73,1.14,0.75,1.54l0.11,0.1
		c1.12,1.21,2.23,2.76,3.31,4.62c0.05,0.08,0.09,0.14,0.11,0.18c0.42,0.11,0.76,0.45,0.93,0.94c0.06,0.23,0.16,0.35,0.32,0.46
		c0.29,0.2,0.66,0.56,1.15,1.14c1.35,1.84,2.97,3.3,4.86,4.41l1.45,0.86l2.65-0.1c2.81,0,3.77-0.28,4.09-0.45l0.18-0.07
		c2.88-0.72,4.49-2.64,4.93-5.87l0.1-0.28c0.21-0.37,0.37-0.82,0.49-1.32c0.27-0.74,0.61-2.61,0.83-7.92
		c0.13-3.09,0.18-6.93,0.16-11.74c0.06-4.11,0.15-7.64,0.27-10.51c-0.05-1.41-0.06-2.66-0.02-3.65c0.01-0.27,0.02-0.47,0.02-0.63
		h-0.16l0.65-15.24c0.23-2.71,0.38-4.87,0.45-6.65l0.18-4.25c0.26-1.98-0.05-2.57-0.19-2.73c-0.04-0.04-0.12-0.14-0.37-0.14
		c-0.51-0.05-1.01-0.1-1.35-0.28l-0.17,0.04c-0.4,0.09-0.8,0.13-1.19,0.13h-1.02c-0.17-0.01-0.24-0.02-0.31-0.02
		c-0.04,0.13-0.17,0.6-0.37,2.2c-0.17,1.33-0.36,3.25-0.58,5.7c-0.23,2.82-0.42,4.65-0.58,5.43c-0.18,1.73-0.38,5.16-0.59,10.13
		c-0.21,5.01-0.31,8.67-0.3,11.2c0.03,9.8-0.02,16.6-0.18,20.21c-0.53,6.92-1.35,11.18-2.52,13.04l-0.24,0.38h-0.62
		c-0.56,0-0.9-0.45-1.18-0.95c-0.11-0.15-0.2-0.23-0.24-0.26c-0.39-0.05-0.72-0.34-1.14-0.81l-0.09-0.12
		c-0.69-1.15-1.39-2.04-2.09-2.64l-0.12-0.13l-0.46-0.63c-0.25-0.4-0.42-0.65-0.58-0.81c-0.2-0.18-0.7-0.7-2.17-2.71
		c-1.09-1.63-2.2-3.3-3.37-5.05l-1.34-1.82c-0.49-0.66-0.67-0.96-0.71-1.22c-0.04-0.1-0.12-0.25-0.23-0.46
		c-0.13-0.24-0.47-0.76-1.36-1.89l-0.11-0.2c-0.1-0.26-0.46-0.95-1.66-2.68c-0.75-1.32-1.38-2.37-1.91-3.18l-1.99-3.06
		c-0.54-0.82-0.83-1.34-0.96-1.71l-0.05-0.14l0-0.06c-0.04-0.06-0.14-0.21-0.4-0.47c-0.14-0.14-0.57-0.57-0.55-1.14v-0.03
		c-0.07-0.19-0.37-0.8-1.59-2.53c-0.76-1.03-1.37-1.98-1.81-2.82c-0.41-0.85-0.75-1.47-1.04-1.86c-0.36-0.57-0.54-0.98-0.6-1.33
		c-0.31-0.21-0.69-0.76-1.5-2.12c-0.54-1.19-0.93-1.95-1.21-2.33c-0.34-0.47-0.63-0.97-0.85-1.5c-0.31-0.44-0.58-0.92-0.79-1.42
		c-0.32-0.45-0.5-0.82-0.55-1.15l-0.07-0.04l-0.15-0.19c-0.98-1.57-2-3.59-3.03-6l-0.07-0.17l0-0.06c-0.06-0.16-0.28-0.61-0.99-1.88
		c-0.86-1.71-1.85-4.05-2.98-6.97c-0.21-0.48-0.36-0.83-0.46-1.08c-0.24-0.03-0.57-0.09-1.05-0.16c-0.78-0.07-1.57-0.22-2.3-0.46
		c-0.1-0.04-0.19-0.08-0.25-0.1c-0.34,0.31-1.02,0.29-1.61,0.1c-0.3-0.13-0.59-0.18-0.93-0.18h-0.51c-0.1,0-0.41,0-0.46,1.08
		l-0.04,0.24c-0.24,0.67-0.44,1.61-0.6,2.78l-1,7.52c-0.41,4.32-0.88,8.55-1.38,12.54c-0.08,2-0.28,3.77-0.57,5.19
		c-0.17,1.65-0.35,4.57-0.52,8.6c-0.31,7.27-0.44,14.37-0.39,21.11c0.16,1.48,0.21,3.06,0.15,4.62
		C271.08,207.32,271.14,208.64,271.12,209.34"/>
	<path class="st11" d="M347.23,205.18c-1.86-0.45-3.64-1.13-5.35-2.04c-1.14-0.81-2.14-2.26-3-4.35c-0.43-1.72-0.64-3.63-0.64-5.71
		c0-1.09,0.07-1.99,0.22-2.72c0.29-0.72,0.43-1.36,0.43-1.9c0.14-0.82,0.64-2.22,1.5-4.22c0.72-1.36,1.07-2.22,1.07-2.59
		c0.29-0.45,0.5-0.77,0.64-0.95c0.29-0.27,0.43-0.54,0.43-0.82c0.86-1.63,2.28-3.49,4.28-5.58c0.28-0.27,0.43-0.45,0.43-0.55v-0.14
		c-0.14,0-0.21-0.05-0.21-0.14h0.21c0.43-0.18,0.92-0.59,1.5-1.22c1.85-1.63,4.07-2.86,6.64-3.67c0.71-0.36,1.71-0.54,3-0.54
		c0.57,0,1.28,0.05,2.14,0.14c3.43,0.18,5.92,0.68,7.49,1.5c0.43,0.18,0.86,0.27,1.28,0.27c0.28,0,0.43-0.05,0.43-0.14h0.21
		c0.28,0,0.78,0.18,1.5,0.54c1.14,0.54,1.78,0.82,1.93,0.82c0.43,0,0.67,0.29,0.75,0.88c0.07,0.59,0.11,2.2,0.11,4.83
		c-0.14,5.8,0.71,11.2,2.57,16.19c0.71,2.45,1.5,4.31,2.36,5.58l1.5,1.9l1.71-0.95c2-1.36,4.07-3.95,6.21-7.75l6.64-12.24
		c0-0.09,0.07-0.14,0.21-0.14c0.43,0,0.93,0.14,1.5,0.41c0.29,0.18,0.5,0.27,0.64,0.27l0.21-0.14h0.43c0.71,0,1.64,0.32,2.78,0.95
		c0,0.09-0.18,0.66-0.53,1.7c-0.36,1.04-0.89,2.38-1.61,4.01c-0.57,1-0.86,1.59-0.86,1.77c0,0.09-0.36,0.82-1.07,2.17
		c-3.14,8.53-7.92,12.79-14.35,12.79c-4,0-7.78-1.45-11.35-4.35c-2.43-3.45-3.64-5.71-3.64-6.8c0-0.45-0.21-0.73-0.64-0.82
		c-0.14,0-0.21,0.14-0.21,0.41c0,0.82-1.36,3.26-4.07,7.34c-2,2.54-3.93,4.31-5.78,5.31c-1.71,0.73-3.64,1.09-5.78,1.09
		C349.8,205.59,348.51,205.46,347.23,205.18 M352.8,197.16c0.86-1.27,1.35-1.9,1.5-1.9c0-0.18,0.07-0.36,0.21-0.54
		c0-0.27,0.14-0.59,0.43-0.95c2.28-3.54,3.99-6.62,5.14-9.25c0.28-0.63,0.71-1.68,1.28-3.13c1.71-3.45,2.57-5.85,2.57-7.21
		c0-0.36-0.07-0.68-0.22-0.95c-0.14-0.63-0.36-1.04-0.64-1.23l-0.21-0.13c-0.86,0-2.21,0.86-4.07,2.58c-2.29,2.45-4,4.58-5.14,6.39
		c-0.14,0.27-0.29,0.54-0.43,0.82c-2.43,5.17-3.64,9.89-3.64,14.15c0,0.91,0.07,1.68,0.21,2.31c0,0.36,0.07,0.82,0.21,1.36v0.54
		l0.86-0.54C351.44,199.02,352.08,198.25,352.8,197.16"/>
	<path class="st11" d="M399.98,218.67c-1.12-0.3-1.84-0.71-2.16-1.22c-0.96-2.64-1.92-6-2.88-10.07c-0.16-0.92-0.4-1.63-0.72-2.14
		c-0.8-4.17-1.2-10.12-1.2-17.86c0-8.34,0.48-17.5,1.44-27.47c0.16-0.71,0.24-1.27,0.24-1.68c0-0.51-0.16-0.71-0.48-0.61h-0.48
		c-0.48,0-1.84,0.1-4.08,0.3c-2.24,0.2-3.84,0.31-4.81,0.31c-8.17,0.61-13.53,0.92-16.1,0.92h-0.96c-1.6-0.92-2.4-1.93-2.4-3.05
		c0-0.41,0.16-0.66,0.48-0.76c0.8-0.2,2.01-0.31,3.6-0.31c4.01-0.2,8.01-0.51,12.01-0.91c1.12-0.1,3.6-0.31,7.45-0.61
		c4.16-0.2,6.25-0.61,6.25-1.22c0-0.31,0.08-0.76,0.24-1.37c0-0.31,0.08-1.63,0.24-3.97c0.16-1.53,0.28-2.49,0.36-2.9
		c0.08-0.4,0.44-0.66,1.08-0.76c0.32-0.1,0.64-0.15,0.96-0.15c0.32,0,0.56,0.1,0.72,0.3c0.64,0.3,1.2,0.46,1.68,0.46
		c0.16,0,0.24-0.05,0.24-0.15c0-0.1,0.08-0.15,0.24-0.15c0.96,0,2.56,0.61,4.8,1.83c0.16,0.71,0.24,1.93,0.24,3.66
		c0.16,1.12,0.28,1.91,0.36,2.37c0.08,0.46,0.2,0.69,0.36,0.69h0.24c0.32,0,3.92-0.05,10.81-0.15c2.4-0.1,4.48-0.15,6.25-0.15
		c4.32,0,7.45,0.15,9.37,0.46c1.92,0.3,2.88,0.66,2.88,1.07v0.31c0,0.3,0.08,0.56,0.24,0.76c0.32,0,0.48,0.3,0.48,0.92
		c0,0.71-0.4,1.07-1.2,1.07c-0.48,0.1-0.88,0.15-1.2,0.15c-1.12,0-1.76-0.2-1.92-0.61c0-0.1-0.72-0.15-2.16-0.15
		c-3.21,0-9.61,0.31-19.22,0.92c-3.21,0.2-5.04,0.41-5.53,0.61c-0.16,0.31-0.32,0.92-0.48,1.83v2.44
		c-0.64,6.62-0.96,15.88-0.96,27.78c0,5.39,0.04,10.02,0.12,13.89c0.08,3.87,0.24,6.84,0.48,8.93c0.24,2.09,0.52,3.23,0.84,3.43
		c0.16,0.1,0.24,0.31,0.24,0.61c0,0.71-0.32,1.42-0.96,2.14c-1.28,0.3-2.4,0.46-3.36,0.46
		C401.02,218.82,400.46,218.77,399.98,218.67"/>
	<path class="st11" d="M440.64,210.61c-1.66-0.28-2.8-2.1-3.44-5.45c-0.38-1.49-0.7-3.05-0.95-4.69c-0.26-1.63-0.38-2.54-0.38-2.72
		v-0.28c-0.26,0-0.7,0.38-1.34,1.12c-1.4,1.77-3.43,3.22-6.11,4.34c-1.78,0.47-3.56,0.7-5.34,0.7c-2.29,0-4.2-0.37-5.73-1.12
		l-0.76-0.28c0,0.1-0.07,0.14-0.19,0.14c-0.13,0-0.57-0.33-1.34-0.98c-0.76-0.65-1.34-1.26-1.72-1.82c-1.66-2.7-2.48-6.9-2.48-12.59
		c0-4.2,0.25-8.16,0.76-11.89c0-0.47,0.12-1.17,0.38-2.1c0.26-1.68,0.64-2.52,1.15-2.52c0.51-0.28,1.02-0.42,1.53-0.42
		c0.63,0,1.08,0.19,1.34,0.56c0.12,0.09,0.25,0.14,0.38,0.14h0.19c0.25,0,0.45,0.09,0.57,0.28v0.14c0.13,0,0.19-0.09,0.19-0.28
		c0-0.28,0.13-0.46,0.38-0.56c0.25,0,0.57,0.19,0.95,0.56c0.64,0.28,1.02,0.42,1.15,0.42c0.25,0,0.7,0.14,1.34,0.42
		c0.38,0.1,0.67,0.24,0.86,0.42c0.19,0.19,0.29,0.65,0.29,1.4c0,1.03-0.13,2.85-0.38,5.46c-0.13,2.8-0.19,5.5-0.19,8.11
		c0,2.71,0.06,4.9,0.19,6.58c0.38,2.99,0.89,4.76,1.53,5.32h0.19c0.38,0,1.18-0.63,2.39-1.89c1.21-1.26,2.45-2.73,3.72-4.41
		c1.27-1.68,2.16-3.12,2.67-4.34c0.38-0.84,0.89-1.91,1.53-3.22c1.02-1.49,1.52-3.54,1.52-6.16c0.13-2.05,0.26-3.61,0.38-4.69
		c0.13-1.07,0.25-1.65,0.38-1.75l0.38-1.4c0.38-2.33,0.83-3.68,1.34-4.06c0.38-0.19,0.83-0.28,1.34-0.28c0.64,0,1.02,0.09,1.15,0.28
		c0,0.09,0.19,0.14,0.57,0.14h0.38c0.76,0,1.34,0.14,1.72,0.42c0.25,0.19,0.51,0.28,0.76,0.28h0.19c0.51,0,1.15,0.37,1.91,1.12
		c-0.76,3.55-1.15,9.28-1.15,17.21c0,6.34,0.25,11.94,0.77,16.78c0.38,3.55,0.76,5.6,1.14,6.16c0.25,0.28,0.38,0.51,0.38,0.7
		c0,0.19-0.38,0.42-1.15,0.7c-0.76,0.37-1.59,0.56-2.48,0.56C442.61,211.17,441.66,210.98,440.64,210.61"/>
	<path class="st11" d="M461.01,206.68c-1.29-0.09-2.14-0.68-2.57-1.77c-1.14-1.99-1.93-4.08-2.35-6.26c-0.29-0.9-0.43-1.54-0.43-1.9
		c-0.29-0.9-0.57-2.45-0.86-4.62c-0.15-1.54-0.22-3.76-0.22-6.67c0-2.9,0.07-4.99,0.22-6.26c0-0.45,0.14-1.72,0.43-3.81
		c0.28-2.17,0.43-3.31,0.43-3.4l0.43-2.04c0.57-2.81,1.21-4.85,1.93-6.12c0.28-0.09,0.71-0.14,1.28-0.14c0.86,0,1.57,0.09,2.14,0.27
		c0.29,0.18,0.5,0.27,0.64,0.27l0.21-0.14c0-0.09,0.07-0.13,0.21-0.13c0.43,0,1.14,0.13,2.14,0.41l2.14,0.54l-0.22,1.22
		c-0.86,5.26-1.28,8.52-1.28,9.79v0.27c0.14,0,0.71-0.63,1.71-1.9c2.14-2.99,4.5-4.49,7.06-4.49h0.64c2.85,0.18,5.07,1.22,6.64,3.13
		c3.14,3.08,5.42,4.62,6.85,4.62h0.43c0.43,0,0.64,0.05,0.64,0.14c0,0.27-0.79,0.5-2.35,0.68c-2.71,0-5.92-1.68-9.63-5.03
		c-1-1-1.64-1.5-1.93-1.5c-1.15,0.9-2.78,2.9-4.93,5.99c-2,2.63-3,7.89-3,15.78c0,5.17,0.43,9.07,1.29,11.7v0.27
		c0,0.36-0.5,0.64-1.5,0.82c-1.29,0.36-2.57,0.54-3.85,0.54C462.65,206.95,461.86,206.86,461.01,206.68"/>
	<path class="st11" d="M493.06,205.18c-1.86-0.45-3.64-1.13-5.35-2.04c-1.14-0.81-2.14-2.26-3-4.35c-0.43-1.72-0.64-3.63-0.64-5.71
		c0-1.09,0.08-1.99,0.21-2.72c0.29-0.72,0.43-1.36,0.43-1.9c0.14-0.82,0.64-2.22,1.5-4.22c0.72-1.36,1.07-2.22,1.07-2.59
		c0.28-0.45,0.5-0.77,0.64-0.95c0.28-0.27,0.43-0.54,0.43-0.82c0.86-1.63,2.28-3.49,4.28-5.58c0.28-0.27,0.43-0.45,0.43-0.55v-0.14
		c-0.14,0-0.22-0.05-0.22-0.14h0.22c0.43-0.18,0.92-0.59,1.5-1.22c1.85-1.63,4.07-2.86,6.64-3.67c0.71-0.36,1.71-0.54,3-0.54
		c0.57,0,1.28,0.05,2.14,0.14c3.43,0.18,5.92,0.68,7.49,1.5c0.43,0.18,0.86,0.27,1.29,0.27c0.28,0,0.43-0.05,0.43-0.14h0.21
		c0.28,0,0.78,0.18,1.5,0.54c1.14,0.54,1.78,0.82,1.93,0.82c0.43,0,0.67,0.29,0.75,0.88c0.07,0.59,0.11,2.2,0.11,4.83
		c-0.15,5.8,0.71,11.2,2.57,16.19c0.71,2.45,1.5,4.31,2.36,5.58l1.5,1.9l1.71-0.95c2-1.36,4.07-3.95,6.21-7.75l6.64-12.24
		c0-0.09,0.07-0.14,0.22-0.14c0.43,0,0.93,0.14,1.5,0.41c0.28,0.18,0.5,0.27,0.64,0.27l0.22-0.14h0.43c0.71,0,1.64,0.32,2.78,0.95
		c0,0.09-0.18,0.66-0.53,1.7c-0.36,1.04-0.89,2.38-1.61,4.01c-0.57,1-0.86,1.59-0.86,1.77c0,0.09-0.36,0.82-1.07,2.17
		c-3.14,8.53-7.92,12.79-14.35,12.79c-4,0-7.78-1.45-11.35-4.35c-2.43-3.45-3.64-5.71-3.64-6.8c0-0.45-0.22-0.73-0.64-0.82
		c-0.14,0-0.21,0.14-0.21,0.41c0,0.82-1.36,3.26-4.07,7.34c-2,2.54-3.93,4.31-5.78,5.31c-1.71,0.73-3.64,1.09-5.78,1.09
		C495.62,205.59,494.34,205.46,493.06,205.18 M498.62,197.16c0.86-1.27,1.36-1.9,1.5-1.9c0-0.18,0.07-0.36,0.21-0.54
		c0-0.27,0.14-0.59,0.43-0.95c2.28-3.54,3.99-6.62,5.14-9.25c0.28-0.63,0.71-1.68,1.28-3.13c1.71-3.45,2.57-5.85,2.57-7.21
		c0-0.36-0.08-0.68-0.22-0.95c-0.14-0.63-0.36-1.04-0.64-1.23l-0.21-0.13c-0.86,0-2.21,0.86-4.07,2.58c-2.29,2.45-4,4.58-5.14,6.39
		c-0.14,0.27-0.29,0.54-0.43,0.82c-2.43,5.17-3.64,9.89-3.64,14.15c0,0.91,0.07,1.68,0.21,2.31c0,0.36,0.07,0.82,0.21,1.36v0.54
		l0.86-0.54C497.26,199.02,497.91,198.25,498.62,197.16"/>
	<path class="st11" d="M547.86,207.14c-1.71-0.39-3.29-1.88-4.71-4.46c-1.71-3.76-2.86-8.06-3.42-12.91
		c-0.15-2.5-0.22-5.36-0.22-8.57c0-5.87,0.22-10.45,0.64-13.73c0.28-1.25,0.57-3.76,0.86-7.51c0-2.5,0.14,1.48,0.43,0.69
		c0.71-3.6,1.07-6.96,1.07-10.1c0-0.7,0.14-1.18,0.43-1.41c0-0.16,0.07-0.74,0.21-1.76c0.14-1.17,0.21-1.92,0.21-2.23
		c0.14-0.71,0.22-1.21,0.22-1.53c0-0.31,0.07-0.47,0.21-0.47h0.43c0.14,0,0.21-0.04,0.21-0.12c0-0.16,0.14-0.2,0.43-0.12
		c0.43,0,1.07,0.16,1.93,0.47l1.07,0.59v-0.59c0-0.15,0.07-0.23,0.21-0.23c0.14,0.23,0.43,0.35,0.86,0.35c0.28,0,0.5,0.08,0.64,0.24
		c0,0.08,0.14,0.16,0.43,0.23c0.43,0,0.93,0.12,1.5,0.35c0.43,0.16,0.71,0.35,0.86,0.59c0.14,0.24,0.21,0.82,0.21,1.76
		c0,0.94-0.08,2.27-0.21,3.99c0,3.13-0.07,5.44-0.21,6.92c0,1.17-0.22-1.51-0.64,3.18c-0.29,1.88-0.43,3.87-0.43,5.99
		c-0.14,2.58-0.36,4.69-0.64,6.34c-0.14,3.44-0.21,7.48-0.21,12.09c0,3.36,0.07,5.79,0.21,7.28c0.28,1.41,0.5,3.1,0.64,5.05
		c0.28,2.11,0.93,4.34,1.93,6.69c0.14,0.31,0.64,0.47,1.5,0.47c0.57,0,0.86,0.08,0.86,0.23c0,0.16-0.07,0.31-0.21,0.47
		c0,0.47-0.07,0.82-0.21,1.06c0,0.47-1.36,0.82-4.07,1.06C550.01,207.5,549.01,207.38,547.86,207.14"/>
	<path class="st11" d="M564.98,206.82c-1-0.36-1.71-0.54-2.14-0.54c-1.28-0.45-2.57-3.04-3.85-7.75c-0.57-2.72-0.86-6.58-0.86-11.56
		c0-3.27,0.14-6.48,0.43-9.66c0.29-2.99,0.43-5.71,0.43-8.16c0-2.36,0.14-3.94,0.43-4.76c0.28-0.36,0.78-0.55,1.5-0.55
		c0.57,0,1.14,0.13,1.71,0.41c0.28,0.18,0.57,0.27,0.86,0.27c0.14,0,0.28-0.05,0.43-0.13c0.14-0.09,0.28-0.14,0.43-0.14
		c1.42,0,3,0.59,4.71,1.77c0.43,1.73,0.64,4.58,0.64,8.57v3.4l1.07-1.77c0.71-1.27,1.14-2.08,1.29-2.45
		c0.71-1.18,1.85-2.18,3.42-2.99c0.57-0.18,1.21-0.27,1.93-0.27c1.57,0,3.32,0.25,5.25,0.75c1.93,0.5,3.32,1.11,4.18,1.84
		c1.71,1.27,2.78,4.76,3.21,10.47c0,1.18,0.07,2.04,0.21,2.58v0.14c0.14,0,0.43-0.45,0.86-1.36c2-4.08,4.5-7.53,7.49-10.34
		c0.57-0.45,1.29-0.68,2.14-0.68c0.43,0,1,0.05,1.71,0.14c3.14,0.27,5.42,0.95,6.85,2.04c1.57,1.9,2.64,5.22,3.21,9.93
		c0.29,1.27,0.43,2.13,0.43,2.58c0.28,0.64,0.43,1.36,0.43,2.18c0.28,1,0.43,1.59,0.43,1.77c0.29,0.27,0.43,0.95,0.43,2.04
		c0.28,2.18,0.78,3.49,1.5,3.94c0.29,0,0.78-0.23,1.5-0.68c0.71-0.45,1.57-1.13,2.57-2.04c3.14-3.08,6.21-7.25,9.21-12.51
		c0.71-1.27,1.25-2.22,1.61-2.86c0.35-0.63,0.61-0.95,0.75-0.95c0.14,0,0.21,0.13,0.21,0.41c0,0.18,0.07,0.27,0.21,0.27
		c0.14,0,0.43-0.09,0.86-0.27c0.43-0.18,0.71-0.27,0.86-0.27c0.28,0,0.57,0.09,0.86,0.27c0.28,0,0.43,0.18,0.43,0.54
		c0,0.36-0.14,1.09-0.43,2.18c-0.72,2.63-2.57,6.48-5.57,11.56c-0.86,1.45-2.07,2.9-3.64,4.35c-1.71,1.72-3.21,2.72-4.5,2.99
		c-1.28,0.36-2.64,0.54-4.07,0.54c-2,0-4.43-0.41-7.28-1.22c-1.28-0.36-2.21-0.95-2.78-1.77c-0.57-0.91-0.86-1.54-0.86-1.9
		c0-0.27-0.22-1-0.64-2.18c-0.29-1.18-0.64-3.27-1.07-6.26c-0.14-3.08-0.36-5.44-0.64-7.07c-0.14-1.63-0.21-2.49-0.21-2.58v-0.14
		l-0.43,0.14c-2.14,2.9-4.36,7.21-6.64,12.92c-0.15,0.91-0.36,1.59-0.64,2.04c0,0.27-0.29,1.45-0.86,3.54
		c-0.43,1.81-0.86,2.95-1.29,3.4c-0.29,0.27-1.21,0.45-2.78,0.54h-1.07c-1.14,0-2.14-0.18-3-0.54c-1.72-0.27-3.07-2.18-4.07-5.71
		c0-0.27-0.14-0.72-0.43-1.36c0-0.45-0.14-3.67-0.43-9.66c-0.14-2.27-0.25-4.1-0.32-5.51c-0.07-1.41-0.18-2.42-0.32-3.06
		c-0.14-0.64-0.29-0.96-0.43-0.96c-0.29,0-0.72,0.5-1.29,1.5c-1.29,2.17-2.21,4.21-2.78,6.12c-0.43,1-0.64,1.59-0.64,1.77
		c-1.28,4.17-2.28,9.43-3,15.78c-0.14,2.9-0.36,4.74-0.64,5.51c-0.29,0.77-1,1.2-2.14,1.29c-1,0.27-1.93,0.41-2.78,0.41
		C566.55,207.09,565.84,207,564.98,206.82"/>
	<path class="st11" d="M647.41,206.14c-3-0.27-5.85-0.86-8.56-1.77c-2.57-1.18-4.57-2.45-5.99-3.81c-2.86-2.99-4.57-6.03-5.14-9.11
		c-0.15-0.73-0.21-1.63-0.21-2.72c0-1.72,0.14-3.22,0.43-4.49c0.43-1.27,0.71-2.31,0.86-3.13c0-0.27,0.07-0.5,0.22-0.68
		c0.28-0.18,0.43-0.45,0.43-0.82c0-0.73,0.86-2.49,2.57-5.3c0.29,0,0.43-0.05,0.43-0.14h-0.21v-0.14c0-0.36,1-1.54,3-3.54
		c2.28-2.08,4.71-3.49,7.28-4.22c1.14-0.45,2.42-0.68,3.85-0.68c0.71,0,1.57,0.05,2.57,0.14c2.85,0,5.21,0.36,7.06,1.09
		c3.43,1,5.35,2.31,5.78,3.95c0.28,0.64,0.43,1.31,0.43,2.04c0,1.18-0.43,2.58-1.28,4.22c-4.57,7.71-10.92,11.56-19.06,11.56h-2.57
		l0.22,1.63c0.86,3.99,2.07,6.76,3.64,8.3c0.28,0.18,0.43,0.36,0.43,0.54c0,0.09,0.67,0.64,2.03,1.63c1.35,1,2.39,1.72,3.1,2.18
		l1.29,0.68l1.5-0.54c2.99-1.27,5.78-2.99,8.35-5.17c3.43-3.26,6.42-6.71,8.99-10.34c1.85-2.72,3.21-4.22,4.07-4.49
		c0.14,0,0.21,0.05,0.21,0.14v0.27l-0.21,0.27h0.21l0.43-0.27c0.14-0.18,0.35-0.27,0.64-0.27h0.43v-0.14c0-0.18,0.14-0.27,0.43-0.27
		c0.43,0,0.78,0.23,1.07,0.68v0.41c0,1.9-2,5.8-5.99,11.7c-6,7.07-13.14,10.61-21.41,10.61H647.41z M643.99,184.1
		c1.43-1.09,2.36-1.86,2.78-2.31c0.29-0.27,0.5-0.41,0.64-0.41c0.14,0,0.43-0.27,0.86-0.82c0.43-0.54,0.85-1.23,1.28-2.04
		c1.85-2.81,2.78-5.21,2.78-7.21v-1.22l-0.43-1.5l-1.28,0.41c-2,0.91-3.85,2.31-5.57,4.22c-2.29,2.81-3.78,5.4-4.5,7.75
		c-0.29,0.64-0.43,1.22-0.43,1.77c-0.15,0.36-0.22,0.63-0.22,0.82c0,0.36,0.22,0.59,0.64,0.68c0.28,0.09,0.43,0.18,0.43,0.27h-0.21
		c-0.29,0-0.57,0.32-0.86,0.95c0,0.09,0.07,0.18,0.22,0.27c0.14,0.09,0.28,0.13,0.43,0.13C641.13,185.87,642.27,185.28,643.99,184.1
		"/>
	<path class="st11" d="M675.03,209.13c-1.57-0.27-2.71-1.04-3.43-2.31c-1-1.36-1.71-2.9-2.14-4.63c-0.43-1.72-0.64-4.4-0.64-8.03
		c0-4.26,0.21-8.7,0.64-13.33c0.28-1,0.43-2.08,0.43-3.27c0.86-5.8,1.57-9.93,2.14-12.38c0.43-1.09,0.78-1.77,1.07-2.04
		c0.28-0.27,0.86-0.41,1.71-0.41c0.86,0,1.43,0.09,1.71,0.27c0,0.09,0.35,0.14,1.07,0.14c0.28-0.09,0.57-0.14,0.86-0.14
		c0.28,0,0.43,0.05,0.43,0.14c0.28,0.18,0.78,0.41,1.5,0.68c0.57,0.18,0.93,0.36,1.07,0.55c0.14,0.18,0.21,0.68,0.21,1.49
		c0,0.91-0.07,2.58-0.21,5.03c-0.14,1.9-0.36,3.36-0.64,4.35c0,0.91-0.22,6.03-0.65,15.37v1.09c0,0.82,0.07,1.27,0.22,1.36
		c0.14,0,0.28-0.27,0.43-0.82c1.28-3.35,3.57-7.21,6.85-11.56c0.85-1.36,1.28-2.08,1.28-2.17c0-0.18,0.78-0.96,2.35-2.31
		c1.57-1.36,2.85-2.4,3.86-3.13c1.71-1.18,3.64-1.77,5.78-1.77c0.43,0,0.93,0.05,1.5,0.14c3.28,0.45,5.42,1.5,6.42,3.13
		c1.14,2.27,1.71,3.67,1.71,4.22v0.13c0,0.27,0.07,0.73,0.21,1.36c0.28,1.09,0.57,2.45,0.86,4.08c0.71,4.45,1.64,8.39,2.78,11.83
		c0.57,1.81,1.03,3.04,1.39,3.67c0.35,0.64,0.75,0.95,1.18,0.95c1.29,0,1.93,0.32,1.93,0.95c0,0.46-0.5,0.82-1.5,1.09
		c-0.86,0.18-1.71,0.27-2.57,0.27c-1.14,0-2.43-0.22-3.85-0.68c-1.57-0.36-2.71-1.13-3.43-2.31c-1.86-3.17-3.21-6.85-4.07-11.02
		c-0.29-1.54-0.43-2.45-0.43-2.72c0-0.27-0.14-1.54-0.43-3.81c-0.29-2.36-0.43-3.58-0.43-3.67c0-0.18-0.07-0.86-0.21-2.04
		c0-1.09-0.14-1.72-0.43-1.9c-0.29,0-1.14,0.68-2.57,2.04c-1.43,1.36-2.57,2.72-3.43,4.08c-0.43,0.73-0.93,1.5-1.5,2.31
		c-3.85,5.98-6.28,12.01-7.28,18.09c-0.42,3.17-0.82,5.22-1.18,6.12c-0.36,0.91-0.96,1.45-1.82,1.63c-1,0.36-2.21,0.54-3.64,0.54
		C678.46,209.81,676.74,209.58,675.03,209.13"/>
	<path class="st11" d="M724.7,214.57c-1-0.27-1.64-0.63-1.93-1.09c-0.86-2.36-1.71-5.35-2.57-8.98c-0.14-0.82-0.36-1.45-0.64-1.9
		c-0.72-3.72-1.07-9.02-1.07-15.92c0-7.43,0.43-15.59,1.28-24.48c0.14-0.63,0.21-1.13,0.21-1.49c0-0.46-0.14-0.64-0.43-0.55h-0.43
		c-0.43,0-1.64,0.09-3.64,0.27c-2,0.18-3.42,0.27-4.28,0.27c-7.28,0.54-12.06,0.81-14.35,0.81h-0.86c-1.42-0.81-2.14-1.72-2.14-2.72
		c0-0.36,0.14-0.59,0.43-0.68c0.72-0.18,1.79-0.27,3.21-0.27c3.57-0.18,7.14-0.45,10.71-0.82c1-0.09,3.21-0.27,6.64-0.54
		c3.71-0.18,5.57-0.54,5.57-1.09c0-0.27,0.07-0.68,0.22-1.23c0-0.27,0.07-1.45,0.21-3.54c0.14-1.36,0.25-2.22,0.32-2.58
		c0.07-0.36,0.39-0.59,0.97-0.68c0.28-0.09,0.57-0.14,0.85-0.14c0.28,0,0.5,0.09,0.64,0.27c0.57,0.27,1.07,0.41,1.5,0.41
		c0.14,0,0.21-0.04,0.21-0.14c0-0.09,0.07-0.14,0.21-0.14c0.86,0,2.28,0.54,4.28,1.63c0.14,0.64,0.22,1.72,0.22,3.26
		c0.14,1,0.25,1.7,0.32,2.11c0.07,0.41,0.18,0.61,0.32,0.61h0.21c0.29,0,3.49-0.04,9.64-0.13c2.14-0.09,3.99-0.14,5.56-0.14
		c3.86,0,6.64,0.14,8.35,0.41c1.71,0.27,2.57,0.59,2.57,0.95v0.27c0,0.27,0.07,0.5,0.21,0.68c0.28,0,0.43,0.27,0.43,0.82
		c0,0.64-0.36,0.95-1.07,0.95c-0.43,0.09-0.79,0.14-1.07,0.14c-1,0-1.57-0.18-1.71-0.54c0-0.09-0.64-0.14-1.93-0.14
		c-2.86,0-8.57,0.27-17.13,0.82c-2.86,0.18-4.5,0.36-4.92,0.54c-0.14,0.27-0.29,0.82-0.43,1.63v2.18
		c-0.57,5.9-0.86,14.15-0.86,24.76c0,4.81,0.03,8.93,0.11,12.38c0.07,3.45,0.21,6.1,0.43,7.96c0.21,1.86,0.46,2.88,0.75,3.06
		c0.14,0.09,0.22,0.27,0.22,0.54c0,0.64-0.29,1.27-0.86,1.9c-1.14,0.27-2.14,0.41-3,0.41C725.63,214.7,725.13,214.66,724.7,214.57"
		/>
	<path class="st11" d="M753.29,206.14c-3-0.27-5.85-0.86-8.56-1.77c-2.57-1.18-4.57-2.45-5.99-3.81c-2.86-2.99-4.57-6.03-5.14-9.11
		c-0.14-0.73-0.21-1.63-0.21-2.72c0-1.72,0.14-3.22,0.43-4.49c0.43-1.27,0.71-2.31,0.86-3.13c0-0.27,0.07-0.5,0.21-0.68
		c0.28-0.18,0.43-0.45,0.43-0.82c0-0.73,0.86-2.49,2.57-5.3c0.28,0,0.43-0.05,0.43-0.14h-0.21v-0.14c0-0.36,1-1.54,2.99-3.54
		c2.28-2.08,4.71-3.49,7.28-4.22c1.14-0.45,2.43-0.68,3.85-0.68c0.71,0,1.57,0.05,2.57,0.14c2.85,0,5.21,0.36,7.06,1.09
		c3.43,1,5.36,2.31,5.78,3.95c0.28,0.64,0.43,1.31,0.43,2.04c0,1.18-0.43,2.58-1.28,4.22c-4.57,7.71-10.92,11.56-19.06,11.56h-2.57
		l0.21,1.63c0.85,3.99,2.07,6.76,3.64,8.3c0.29,0.18,0.43,0.36,0.43,0.54c0,0.09,0.67,0.64,2.03,1.63c1.36,1,2.39,1.72,3.1,2.18
		l1.28,0.68l1.5-0.54c3-1.27,5.78-2.99,8.35-5.17c3.42-3.26,6.42-6.71,8.99-10.34c1.85-2.72,3.21-4.22,4.07-4.49
		c0.14,0,0.21,0.05,0.21,0.14v0.27l-0.21,0.27h0.21l0.43-0.27c0.14-0.18,0.35-0.27,0.64-0.27h0.43v-0.14c0-0.18,0.14-0.27,0.43-0.27
		c0.43,0,0.78,0.23,1.07,0.68v0.41c0,1.9-2,5.8-6,11.7c-5.99,7.07-13.13,10.61-21.41,10.61H753.29z M749.86,184.1
		c1.43-1.09,2.35-1.86,2.78-2.31c0.29-0.27,0.5-0.41,0.64-0.41c0.14,0,0.43-0.27,0.86-0.82c0.43-0.54,0.86-1.23,1.28-2.04
		c1.85-2.81,2.79-5.21,2.79-7.21v-1.22l-0.43-1.5L756.5,169c-2,0.91-3.85,2.31-5.57,4.22c-2.29,2.81-3.78,5.4-4.5,7.75
		c-0.29,0.64-0.43,1.22-0.43,1.77c-0.14,0.36-0.21,0.63-0.21,0.82c0,0.36,0.21,0.59,0.64,0.68c0.28,0.09,0.43,0.18,0.43,0.27h-0.22
		c-0.29,0-0.57,0.32-0.86,0.95c0,0.09,0.07,0.18,0.21,0.27c0.14,0.09,0.28,0.13,0.43,0.13C747,185.87,748.15,185.28,749.86,184.1"/>
	<path class="st11" d="M813.97,209.49c-2.14-0.52-4-2.73-5.57-6.62c-0.86-2.1-1.28-6.62-1.28-13.55v-4.41
		c0.14-2.94,0.21-5.38,0.21-7.33c0-1.94,0.07-2.97,0.21-3.07c0-0.21,0.14-1,0.43-2.36c0.14-3.04,0.85-4.62,2.14-4.73
		c0.43-0.1,0.78-0.16,1.07-0.16c0.43,0,0.85,0.11,1.28,0.32c0.43,0.21,0.71,0.32,0.86,0.32c0.14,0,0.21-0.1,0.21-0.32
		c0-0.32,0.14-0.47,0.43-0.47c0.28,0,0.71,0.16,1.28,0.47c0.72,0.32,1.14,0.47,1.29,0.47l1.07,0.16l1.07,0.16l-0.21,6.15
		c-0.29,4.41-0.43,8.77-0.43,13.08c0,9.04,0.43,14.81,1.29,17.33c0,0.11,0.5,0.16,1.5,0.16c0.86-0.1,1.29,0.16,1.29,0.79v0.63
		c0,1.68-1.29,2.73-3.85,3.15c-0.72,0.11-1.29,0.16-1.71,0.16C815.82,209.81,814.96,209.71,813.97,209.49 M813.32,161.87
		c-2-0.47-3.07-1.09-3.21-1.88c-0.29-0.7-0.43-1.21-0.43-1.52c-0.29-1.48-0.43-3.08-0.43-4.8v-1.4c0.14-0.55,0.64-0.82,1.5-0.82
		c0.43-0.08,0.71-0.12,0.86-0.12c0.43,0,0.71,0.08,0.85,0.24c0.43,0.08,0.86,0.12,1.29,0.12c0.29,0,0.5-0.04,0.64-0.12
		c0-0.16,0.28-0.2,0.85-0.12c0.57,0.08,0.86,0.2,0.86,0.35c0,0.08,0.5,0.2,1.5,0.35c0.86,0,1.42,0.12,1.71,0.35
		c0.14,0.08,0.21,0.27,0.21,0.59c0,0.63-0.21,1.64-0.64,3.05c-0.57,2.34-0.86,3.83-0.86,4.45v0.59c0,0.39-0.29,0.63-0.85,0.7
		c-0.72,0.08-1.43,0.12-2.14,0.12C814.32,161.99,813.75,161.95,813.32,161.87"/>
	<path class="st11" d="M832.59,209.13c-1.57-0.27-2.71-1.04-3.42-2.31c-1-1.36-1.71-2.9-2.14-4.63c-0.43-1.72-0.64-4.4-0.64-8.03
		c0-4.26,0.21-8.7,0.64-13.33c0.29-1,0.43-2.08,0.43-3.27c0.86-5.8,1.57-9.93,2.14-12.38c0.43-1.09,0.78-1.77,1.07-2.04
		c0.28-0.27,0.86-0.41,1.71-0.41c0.86,0,1.43,0.09,1.71,0.27c0,0.09,0.35,0.14,1.07,0.14c0.29-0.09,0.57-0.14,0.86-0.14
		c0.28,0,0.43,0.05,0.43,0.14c0.29,0.18,0.78,0.41,1.5,0.68c0.57,0.18,0.93,0.36,1.07,0.55c0.14,0.18,0.21,0.68,0.21,1.49
		c0,0.91-0.07,2.58-0.21,5.03c-0.14,1.9-0.36,3.36-0.64,4.35c0,0.91-0.21,6.03-0.64,15.37v1.09c0,0.82,0.07,1.27,0.22,1.36
		c0.14,0,0.28-0.27,0.43-0.82c1.28-3.35,3.57-7.21,6.85-11.56c0.86-1.36,1.28-2.08,1.28-2.17c0-0.18,0.78-0.96,2.35-2.31
		c1.57-1.36,2.85-2.4,3.86-3.13c1.71-1.18,3.64-1.77,5.78-1.77c0.43,0,0.93,0.05,1.5,0.14c3.28,0.45,5.42,1.5,6.42,3.13
		c1.14,2.27,1.71,3.67,1.71,4.22v0.13c0,0.27,0.07,0.73,0.22,1.36c0.28,1.09,0.57,2.45,0.85,4.08c0.71,4.45,1.64,8.39,2.78,11.83
		c0.57,1.81,1.03,3.04,1.39,3.67c0.35,0.64,0.75,0.95,1.18,0.95c1.29,0,1.93,0.32,1.93,0.95c0,0.46-0.5,0.82-1.5,1.09
		c-0.86,0.18-1.71,0.27-2.57,0.27c-1.14,0-2.43-0.22-3.85-0.68c-1.57-0.36-2.72-1.13-3.43-2.31c-1.86-3.17-3.21-6.85-4.07-11.02
		c-0.29-1.54-0.43-2.45-0.43-2.72c0-0.27-0.15-1.54-0.43-3.81c-0.29-2.36-0.43-3.58-0.43-3.67c0-0.18-0.08-0.86-0.22-2.04
		c0-1.09-0.14-1.72-0.43-1.9c-0.29,0-1.15,0.68-2.57,2.04c-1.43,1.36-2.57,2.72-3.43,4.08c-0.43,0.73-0.93,1.5-1.5,2.31
		c-3.85,5.98-6.28,12.01-7.28,18.09c-0.43,3.17-0.82,5.22-1.18,6.12c-0.36,0.91-0.96,1.45-1.82,1.63c-1,0.36-2.22,0.54-3.64,0.54
		C836.02,209.81,834.31,209.58,832.59,209.13"/>
	<path class="st11" d="M889.79,206c-3.85-0.82-6.78-2.17-8.78-4.08c-0.86-0.9-1.57-1.49-2.14-1.77c-0.15,0-0.21-0.05-0.21-0.14h0.21
		v-0.14c0-0.18-0.15-0.55-0.43-1.09c-1.29-2.27-2.21-4.49-2.78-6.67c-0.29-0.91-0.43-1.68-0.43-2.31c-0.14-0.73-0.21-1.5-0.21-2.31
		c0-0.82,0.07-1.68,0.21-2.58c0.14-1,0.21-1.54,0.21-1.63c0-0.27,0.07-0.54,0.22-0.82c0.28-0.45,0.42-0.86,0.42-1.22
		c0.29-0.63,0.71-1.63,1.29-2.99c0.71-1.45,1.07-2.22,1.07-2.31c0-0.18,0.28-0.5,0.86-0.95c0.43-0.45,0.64-0.82,0.64-1.09
		s0.14-0.45,0.43-0.54c0.29,0,0.43-0.05,0.43-0.14c0-0.45,0.64-1.13,1.93-2.04l0.22-0.27c0-0.72,2.14-2.08,6.42-4.08
		c1.43-0.45,3.07-0.68,4.93-0.68c2.71,0,5.57,0.5,8.56,1.5c3.71,1.18,5.57,3.04,5.57,5.58v0.82c0,2.99-1.5,4.62-4.5,4.9
		c-0.72,0-1.5-0.14-2.36-0.41l-0.85-0.27c1-0.72,1.5-1.95,1.5-3.67v-0.54c0-0.18-0.07-0.77-0.21-1.77c0-0.72-0.21-1.22-0.64-1.49
		c-0.14,0-0.29-0.14-0.43-0.41c0-0.18-0.29-0.54-0.85-1.09c-0.43-0.36-0.86-0.54-1.29-0.54c-0.29,0-0.64,0.05-1.07,0.13
		c-2.28,0.91-4.42,2.36-6.42,4.35c-1.14,1.09-1.71,1.72-1.71,1.9l-0.64,1.22c-2.14,3.36-3.21,6.98-3.21,10.88
		c0,5.8,2.21,10.74,6.64,14.83c2.28,1.45,3.85,2.18,4.71,2.18c0.29,0,1.18-0.48,2.68-1.43c1.49-0.95,2.74-1.84,3.74-2.65
		c1-0.82,1.57-1.23,1.71-1.23c0.28,0,0.43-0.09,0.43-0.27c0-0.18,0.64-0.95,1.93-2.31l1.93-1.9c-0.15,0-0.21-0.04-0.21-0.14
		l0.21-0.14c0.28-0.18,0.57-0.41,0.86-0.68c2-2.27,3.57-4.03,4.71-5.31c0.57-0.82,0.93-1.22,1.07-1.22
		c1.14-1.27,1.71-2.08,1.71-2.45c0.43-0.63,1.28-1.63,2.57-2.99c0.29-0.72,1.14-1.09,2.57-1.09c0.86,0,1.79,0.09,2.79,0.27
		c0.71,0.18,1.07,0.41,1.07,0.68c0,0.09-0.08,0.23-0.21,0.41c-0.29,0.54-0.64,1.27-1.07,2.18c-0.57,1-1,1.77-1.28,2.31
		c-0.43,0.64-1.15,1.77-2.14,3.4c-5,8.43-10.49,13.6-16.48,15.51c-3,1-6.14,1.5-9.42,1.5C894.07,206.68,891.93,206.46,889.79,206"/>
	<path class="st11" d="M925.76,206.68c-1.29-0.09-2.14-0.68-2.57-1.77c-1.15-1.99-1.93-4.08-2.36-6.26c-0.29-0.9-0.43-1.54-0.43-1.9
		c-0.29-0.9-0.57-2.45-0.86-4.62c-0.15-1.54-0.22-3.76-0.22-6.67c0-2.9,0.07-4.99,0.22-6.26c0-0.45,0.14-1.72,0.43-3.81
		c0.28-2.17,0.43-3.31,0.43-3.4l0.43-2.04c0.57-2.81,1.21-4.85,1.93-6.12c0.28-0.09,0.71-0.14,1.29-0.14c0.85,0,1.57,0.09,2.14,0.27
		c0.28,0.18,0.5,0.27,0.64,0.27l0.21-0.14c0-0.09,0.07-0.13,0.21-0.13c0.43,0,1.14,0.13,2.14,0.41l2.14,0.54l-0.22,1.22
		c-0.85,5.26-1.28,8.52-1.28,9.79v0.27c0.14,0,0.71-0.63,1.71-1.9c2.14-2.99,4.5-4.49,7.06-4.49h0.64c2.85,0.18,5.06,1.22,6.64,3.13
		c3.14,3.08,5.42,4.62,6.85,4.62h0.43c0.43,0,0.64,0.05,0.64,0.14c0,0.27-0.79,0.5-2.36,0.68c-2.71,0-5.93-1.68-9.63-5.03
		c-1-1-1.64-1.5-1.93-1.5c-1.14,0.9-2.78,2.9-4.92,5.99c-2,2.63-3,7.89-3,15.78c0,5.17,0.43,9.07,1.29,11.7v0.27
		c0,0.36-0.5,0.64-1.5,0.82c-1.29,0.36-2.57,0.54-3.86,0.54C927.4,206.95,926.62,206.86,925.76,206.68"/>
	<path class="st11" d="M965.15,205.32c-2.14-0.55-4-2.45-5.57-5.71c-0.86-1.81-1.28-5.71-1.28-11.7v-3.95c0-1.63,0.04-3.1,0.11-4.42
		c0.07-1.31,0.18-2.79,0.32-4.42c0-0.18,0.14-0.86,0.43-2.04c0.14-2.81,0.86-4.22,2.14-4.22c0.43-0.09,0.78-0.13,1.07-0.13
		c0.43,0,0.86,0.09,1.29,0.27c0.43,0.18,0.71,0.27,0.86,0.27c0.14,0,0.22-0.09,0.22-0.27c0-0.27,0.14-0.41,0.43-0.41
		c0.14,0,0.57,0.18,1.28,0.54c0.71,0.27,1.14,0.41,1.29,0.41h1.07l1.07,0.27l-0.21,5.17c-0.29,3.81-0.43,7.57-0.43,11.29
		c0,7.8,0.43,12.83,1.29,15.1l1.5,0.14c1,0,1.43,0.18,1.29,0.54v0.68c0,1.36-1.29,2.22-3.85,2.59c-0.72,0.18-1.36,0.27-1.93,0.27
		C966.94,205.59,966.15,205.5,965.15,205.32 M962,165.39c-0.9-0.23-1.34-0.51-1.34-0.85c0-0.23,0.45-0.46,1.34-0.68
		c1.25,0,2.33-0.62,3.23-1.88c1.97-3.08,2.96-5.41,2.96-7v-0.68c0-0.34,1.34-0.57,4.03-0.68c0.89-0.11,1.61-0.17,2.15-0.17
		c1.08,0,1.7,0.23,1.88,0.68c0.36,0.34,0.54,0.74,0.54,1.2c0,2.05-1.52,4.61-4.57,7.69c-2.15,1.82-4.48,2.73-6.99,2.73
		C964.15,165.73,963.08,165.62,962,165.39"/>
	<path class="st11" d="M991.92,204.91c-0.14,0-0.86-0.09-2.14-0.27c-1.28-0.09-2.43-0.45-3.42-1.09c-0.86-0.73-1.82-1.61-2.89-2.65
		c-1.07-1.04-1.6-1.65-1.6-1.84c0-0.18-0.43-0.77-1.28-1.77c-2.43-2.9-4.28-6.85-5.57-11.84c-0.86-2.36-1.36-5.39-1.5-9.11
		l-0.22-4.35l1.28-0.27c0.43-0.09,0.86-0.14,1.29-0.14c0.28,0,0.71,0.05,1.29,0.14c0.28,0.09,0.57,0.14,0.85,0.14
		c0.29,0,0.43-0.05,0.43-0.14c0-0.18,0.29-0.27,0.86-0.27c0.43,0,0.71,0.09,0.86,0.27c0,0.09,0.28,0.18,0.85,0.27
		c0.43,0,1.07,0.14,1.93,0.41c0.57,0,0.96,0.29,1.17,0.88c0.22,0.59,0.46,2.06,0.75,4.42c0.28,1.18,0.43,1.86,0.43,2.04
		c0.29,0.45,0.43,1.09,0.43,1.9c0.29,0.91,0.5,1.63,0.64,2.18c0.28,0.54,0.43,0.95,0.43,1.22c0,0.27,0.14,0.81,0.43,1.63
		c0.43,0.91,0.64,1.5,0.64,1.77c0,0.27,0.07,0.45,0.21,0.54l0.21,0.41c0.71,1.63,1.93,3.72,3.64,6.26c0.43,0.64,0.82,1.2,1.18,1.7
		c0.35,0.5,0.53,0.8,0.53,0.88c0,0.27,0.14,0.41,0.43,0.41c0.14,0,0.46-0.29,0.96-0.88s0.75-1.07,0.75-1.43v-0.27
		c0-0.09,0.07-0.14,0.22-0.14c0.28,0,0.43-0.04,0.43-0.14v-0.14c0-0.63,0.43-1.95,1.28-3.94c0.71-1.36,1.36-3.13,1.93-5.3
		c0.71-1.99,1.35-3.72,1.93-5.17c0.28-0.54,0.5-1.18,0.64-1.9c0.29-1.09,0.5-1.9,0.64-2.45c0.28-0.36,0.5-0.91,0.64-1.63
		c1.14-2.54,2.14-4.62,3-6.26c0.28-0.36,0.57-0.86,0.86-1.5c0.28-0.63,0.64-1.04,1.07-1.23c0.71-0.18,1.64-0.27,2.78-0.27
		c0.86,0,1.43,0.05,1.71,0.14v0.27c0,0.27-0.07,0.68-0.21,1.23c-0.43,1-0.85,2.63-1.28,4.9c-1.28,5.8-2.93,12.2-4.92,19.18
		c-1.86,7.16-4,11.11-6.42,11.83c-3,1-5.43,1.5-7.28,1.5C992.34,205.05,992.06,205,991.92,204.91"/>
	<path class="st11" d="M1037.09,206.14c-3-0.27-5.85-0.86-8.56-1.77c-2.57-1.18-4.57-2.45-5.99-3.81c-2.86-2.99-4.57-6.03-5.14-9.11
		c-0.14-0.73-0.21-1.63-0.21-2.72c0-1.72,0.14-3.22,0.43-4.49c0.43-1.27,0.71-2.31,0.86-3.13c0-0.27,0.07-0.5,0.21-0.68
		c0.28-0.18,0.43-0.45,0.43-0.82c0-0.73,0.85-2.49,2.57-5.3c0.28,0,0.43-0.05,0.43-0.14h-0.21v-0.14c0-0.36,1-1.54,2.99-3.54
		c2.28-2.08,4.71-3.49,7.28-4.22c1.14-0.45,2.42-0.68,3.85-0.68c0.71,0,1.57,0.05,2.57,0.14c2.86,0,5.21,0.36,7.07,1.09
		c3.42,1,5.35,2.31,5.78,3.95c0.28,0.64,0.43,1.31,0.43,2.04c0,1.18-0.43,2.58-1.28,4.22c-4.57,7.71-10.92,11.56-19.06,11.56h-2.57
		l0.21,1.63c0.86,3.99,2.07,6.76,3.64,8.3c0.29,0.18,0.43,0.36,0.43,0.54c0,0.09,0.68,0.64,2.03,1.63c1.35,1,2.39,1.72,3.1,2.18
		l1.29,0.68l1.5-0.54c3-1.27,5.78-2.99,8.35-5.17c3.42-3.26,6.42-6.71,8.99-10.34c1.85-2.72,3.21-4.22,4.07-4.49
		c0.14,0,0.21,0.05,0.21,0.14v0.27l-0.21,0.27h0.21l0.43-0.27c0.14-0.18,0.35-0.27,0.64-0.27h0.43v-0.14c0-0.18,0.14-0.27,0.43-0.27
		c0.43,0,0.78,0.23,1.07,0.68v0.41c0,1.9-2,5.8-5.99,11.7c-5.99,7.07-13.13,10.61-21.41,10.61H1037.09z M1033.66,184.1
		c1.43-1.09,2.36-1.86,2.78-2.31c0.28-0.27,0.5-0.41,0.64-0.41c0.14,0,0.43-0.27,0.86-0.82c0.43-0.54,0.86-1.23,1.28-2.04
		c1.85-2.81,2.78-5.21,2.78-7.21v-1.22l-0.43-1.5l-1.28,0.41c-2,0.91-3.85,2.31-5.57,4.22c-2.29,2.81-3.78,5.4-4.49,7.75
		c-0.29,0.64-0.43,1.22-0.43,1.77c-0.14,0.36-0.21,0.63-0.21,0.82c0,0.36,0.21,0.59,0.64,0.68c0.28,0.09,0.43,0.18,0.43,0.27h-0.22
		c-0.29,0-0.57,0.32-0.85,0.95c0,0.09,0.07,0.18,0.21,0.27c0.14,0.09,0.28,0.13,0.43,0.13
		C1030.8,185.87,1031.95,185.28,1033.66,184.1"/>
	<path class="st11" d="M1066.85,206.74c-1.71-0.39-3.29-1.87-4.71-4.43c-1.71-3.73-2.86-8.01-3.43-12.84
		c-0.14-2.49-0.21-5.33-0.21-8.52c0-5.83,0.21-10.39,0.64-13.65c0.28-1.24,0.57-3.73,0.86-7.47c0-2.49,0.14,1.5,0.43,0.72
		c0.71-3.58,1.07-6.92,1.07-10.04c0-0.7,0.14-1.17,0.43-1.4c0-0.16,0.07-0.74,0.21-1.75c0.14-1.17,0.21-1.91,0.21-2.22
		c0.14-0.7,0.22-1.2,0.22-1.52c0-0.31,0.07-0.47,0.21-0.47h0.43c0.14,0,0.21-0.04,0.21-0.12c0-0.16,0.14-0.2,0.43-0.12
		c0.43,0,1.07,0.16,1.93,0.47l1.07,0.58v-0.58c0-0.16,0.07-0.23,0.21-0.23c0.14,0.23,0.43,0.35,0.86,0.35c0.28,0,0.5,0.08,0.64,0.23
		c0,0.08,0.14,0.16,0.43,0.23c0.43,0,0.93,0.11,1.5,0.35c0.43,0.16,0.71,0.35,0.85,0.58c0.14,0.23,0.21,0.82,0.21,1.75
		c0,0.93-0.07,2.26-0.21,3.97c0,3.11-0.07,5.41-0.22,6.89c0,1.17-0.21-1.54-0.64,3.13c-0.29,1.87-0.43,3.85-0.43,5.95
		c-0.14,2.57-0.36,4.67-0.64,6.3c-0.14,3.42-0.21,7.43-0.21,12.02c0,3.35,0.07,5.76,0.21,7.24c0.29,1.4,0.5,3.07,0.64,5.02
		c0.28,2.1,0.93,4.32,1.93,6.65c0.14,0.31,0.64,0.47,1.5,0.47c0.57,0,0.86,0.08,0.86,0.23c0,0.16-0.08,0.31-0.22,0.47
		c0,0.47-0.08,0.82-0.21,1.05c0,0.47-1.36,0.82-4.07,1.05C1068.99,207.09,1067.99,206.97,1066.85,206.74"/>
	<path class="st11" d="M1093.15,211.19c-2.42-0.43-3.77-0.95-4.03-1.55c-0.38-1.28-0.53-2.75-0.43-4.39
		c0.04-0.67,0.15-1.2,0.32-1.58c0.19-0.67,0.75-1.02,1.67-1.07c0.47-0.17,0.85-0.24,1.16-0.22l0.22,0.16c0.3,0.11,0.6,0.18,0.9,0.2
		c0.3,0.02,0.61-0.06,0.93-0.24c0.01-0.1,0.16-0.14,0.46-0.12c0.15,0.01,0.37,0.07,0.68,0.18c0.59,0.23,1.2,0.36,1.81,0.4
		c1.38-0.11,2.02,0.75,1.91,2.59l-0.1,1.6c-0.26,1.83-0.55,2.98-0.89,3.44c-0.95,0.53-2.18,0.75-3.7,0.66L1093.15,211.19z
		 M1092.72,195.15c-0.76-0.14-1.24-0.46-1.44-0.96c-0.2-0.49-0.4-1.67-0.59-3.53c-0.23-1.27-0.37-2.96-0.39-5.05
		c-0.03-2.09,0.09-5.45,0.36-10.1c0.37-6.38,0.77-11.84,1.18-16.38c0.5-3.27,0.91-6.4,1.24-9.39c0.31-2.8,0.58-4.72,0.79-5.78
		l0.14-2.32c-0.27-0.69,0.29-1,1.66-0.92c0.76,0.04,1.44,0.23,2.03,0.55c0.29,0.21,0.52,0.32,0.67,0.33
		c0.15,0.01,0.31-0.08,0.47-0.26c0.16-0.18,0.4-0.27,0.7-0.25c0.15,0.01,0.38,0.07,0.68,0.19c0.58,0.42,0.96,0.64,1.11,0.65
		c0.46,0.03,1.05,0.21,1.8,0.54l1.11,0.65l-0.53,5.21c-1.34,22.92-2.69,38.18-4.05,45.77c-0.68,1.12-2.08,1.62-4.21,1.5
		C1094.53,195.55,1093.62,195.4,1092.72,195.15"/>
	<path class="st11" d="M272.4,216.17c-1.01-0.29-1.63-1.64-1.87-4.04c0.04-0.87-0.04-1.78-0.22-2.73c0.03-0.65-0.03-2-0.17-4.04
		c0.07-1.52,0.02-3.05-0.15-4.58c-0.05-6.76,0.08-13.81,0.39-21.15c0.17-4.07,0.35-6.98,0.54-8.72c0.28-1.38,0.47-3.09,0.56-5.12
		c0.51-4.07,0.97-8.25,1.38-12.54c0.5-3.78,0.83-6.29,1-7.52c0.17-1.23,0.38-2.22,0.64-2.94c0.05-1.24,0.47-1.85,1.27-1.85h0.51
		c0.45,0,0.85,0.07,1.18,0.22c0.22,0.07,0.45,0.11,0.67,0.11c0.11,0,0.17-0.04,0.17-0.11c0.12-0.15,0.23-0.22,0.35-0.22
		c0.11,0,0.34,0.07,0.67,0.22c0.67,0.22,1.4,0.36,2.19,0.43c0.9,0.15,1.4,0.22,1.52,0.22c0,0.07,0.2,0.58,0.61,1.53
		c1.12,2.91,2.1,5.2,2.93,6.87c0.73,1.31,1.1,2.04,1.1,2.18c1.03,2.4,2.02,4.36,2.97,5.89c0.22,0.15,0.33,0.29,0.32,0.44
		c-0.01,0.22,0.15,0.55,0.47,0.98c0.21,0.51,0.47,0.98,0.79,1.42c0.2,0.51,0.47,0.98,0.79,1.42c0.32,0.44,0.74,1.24,1.26,2.4
		c0.74,1.24,1.16,1.86,1.28,1.86c0.22,0.15,0.33,0.29,0.32,0.43c-0.01,0.22,0.15,0.58,0.46,1.09c0.32,0.44,0.69,1.09,1.11,1.96
		c0.42,0.8,1,1.71,1.75,2.73c1.28,1.82,1.86,2.83,1.74,3.05c-0.01,0.14,0.1,0.32,0.32,0.54c0.43,0.44,0.65,0.76,0.64,0.98
		c0.1,0.29,0.39,0.8,0.87,1.53c0.48,0.73,1.14,1.74,1.99,3.05c0.53,0.8,1.17,1.85,1.9,3.16c0.96,1.38,1.54,2.33,1.75,2.84
		c0.75,0.94,1.23,1.62,1.44,2.02c0.21,0.4,0.31,0.64,0.31,0.71c0,0.07,0.18,0.36,0.56,0.87c0.37,0.51,0.83,1.13,1.36,1.85
		c1.17,1.74,2.29,3.42,3.35,5.02c1.07,1.45,1.77,2.33,2.09,2.62c0.22,0.22,0.43,0.51,0.64,0.87c0.21,0.29,0.37,0.51,0.48,0.66
		c0.76,0.65,1.52,1.6,2.26,2.84c0.32,0.36,0.54,0.54,0.65,0.54c0.23,0,0.5,0.22,0.82,0.65c0.21,0.36,0.37,0.54,0.49,0.54h0.17
		c1.09-1.74,1.89-5.96,2.4-12.65c0.15-3.64,0.21-10.36,0.18-20.18c-0.01-2.54,0.1-6.29,0.31-11.23c0.21-5.02,0.41-8.43,0.6-10.25
		c0.14-0.72,0.33-2.51,0.56-5.34c0.22-2.47,0.41-4.38,0.58-5.73c0.17-1.35,0.32-2.16,0.45-2.45c0.02-0.36,0.36-0.51,1.04-0.43h1.02
		c0.34,0,0.68-0.04,1.02-0.11c0.12-0.15,0.23-0.22,0.35-0.22c0.11,0,0.22,0.07,0.33,0.22c0,0.07,0.33,0.14,1.01,0.22
		c1.24,0,1.7,1.24,1.37,3.71l-0.18,4.25c-0.08,1.82-0.23,4.03-0.45,6.65l-0.61,14.4c0.11,0,0.15,0.49,0.11,1.47
		c-0.04,0.98-0.04,2.2,0.01,3.65c-0.12,2.84-0.21,6.33-0.27,10.47c0.02,4.73-0.03,8.65-0.16,11.78c-0.18,4.36-0.47,7.05-0.85,8.07
		c-0.14,0.58-0.33,1.09-0.57,1.53c-0.49,3.57-2.34,5.74-5.54,6.55c-0.7,0.36-2.17,0.54-4.43,0.54l-2.89,0.11l-1.65-0.98
		c-1.99-1.16-3.68-2.69-5.06-4.58c-0.43-0.51-0.76-0.84-0.98-0.98c-0.33-0.22-0.54-0.51-0.64-0.87c-0.1-0.29-0.26-0.44-0.49-0.44
		c-0.11,0-0.27-0.18-0.49-0.54c-1.05-1.82-2.12-3.31-3.2-4.48c-0.22-0.15-0.33-0.33-0.32-0.55c0.01-0.22-0.2-0.62-0.63-1.2
		c-0.43-0.65-0.64-1.02-0.63-1.09c0.01-0.22-0.1-0.33-0.33-0.33c-0.11,0-0.22-0.03-0.33-0.11l0-0.11c0.01-0.15-0.15-0.47-0.47-0.98
		c-0.43-0.58-1.02-1.42-1.76-2.51c-0.86-1.24-1.27-2-1.26-2.29c-0.22-0.29-0.54-0.76-0.96-1.42c-0.31-0.65-0.47-1.02-0.46-1.09
		l-1.12-1.53c-0.75-1.09-1.12-1.67-1.11-1.75c0.01-0.15-0.25-0.69-0.78-1.64c-0.64-1.02-0.95-1.56-0.95-1.63
		c0.01-0.14-0.13-0.4-0.39-0.76c-0.27-0.36-0.77-1.13-1.51-2.29c-0.54-0.8-0.79-1.31-0.78-1.53c-0.73-1.53-1.62-3.12-2.68-4.8
		c-0.22-0.29-0.32-0.51-0.31-0.65l0.01-0.11c0.01-0.15-0.16-0.33-0.49-0.54c-0.21-0.36-0.63-1.16-1.25-2.4
		c-0.62-1.31-1.3-2.58-2.04-3.82c-0.53-0.95-1.1-2.09-1.72-3.44c-0.62-1.35-1.19-2.58-1.71-3.71c-0.52-1.13-0.78-1.73-0.77-1.8
		c0.01-0.15-0.05-0.22-0.16-0.22c-0.23,0-0.34,0.07-0.35,0.22c-0.57,2.83-1.1,10-1.59,21.48c-0.16,3.71-0.27,7.07-0.34,10.09
		c-0.07,3.02-0.12,5.6-0.16,7.74c-0.04,2.15-0.02,3.84,0.04,5.07c0.06,1.24,0.15,1.89,0.26,1.96l0.33,0.22
		c0,0.07-0.12,0.15-0.35,0.22c-0.23,0.07-0.35,0.26-0.36,0.55c-0.01,0.22,0.03,0.51,0.13,0.87c0.07,0.95,0.08,2.15,0.02,3.6
		l-0.1,2.4h0.85c0.56,0,0.9,0.04,1.01,0.11l-0.01,0.11c-0.03,0.8-0.45,2.62-1.25,5.45c-0.24,0.29-0.65,0.55-1.22,0.76
		c-0.92,0.22-1.99,0.33-3.24,0.33C273.69,216.38,272.96,216.31,272.4,216.17"/>
</g>
</svg>
