<?xml version="1.0" encoding="utf-8"?>
<!-- Generator: Adobe Illustrator 25.2.1, SVG Export Plug-In . SVG Version: 6.00 Build 0)  -->
<svg version="1.1" id="Camada_1" xmlns="http://www.w3.org/2000/svg" xmlns:xlink="http://www.w3.org/1999/xlink" x="0px" y="0px"
	 viewBox="0 0 1251.8 598.81" style="enable-background:new 0 0 1251.8 598.81;" xml:space="preserve">
<style type="text/css">
	.st0{clip-path:url(#SVGID_2_);fill:#FBC013;}
	.st1{clip-path:url(#SVGID_2_);fill:#4400FF;}
	.st2{clip-path:url(#SVGID_2_);fill:#0068FF;}
	.st3{clip-path:url(#SVGID_2_);fill:#00B3FF;}
	.st4{clip-path:url(#SVGID_2_);fill:#3AE4C2;}
	.st5{clip-path:url(#SVGID_2_);fill:#4ADE3D;}
	.st6{clip-path:url(#SVGID_2_);fill:#93E13C;}
	.st7{clip-path:url(#SVGID_2_);fill:#FFCA00;}
	.st8{clip-path:url(#SVGID_2_);fill:#FFAC00;}
	.st9{clip-path:url(#SVGID_2_);fill:#FF6700;}
	.st10{clip-path:url(#SVGID_2_);fill:#E61126;}
</style>
<g>
	<defs>
		<rect id="SVGID_1_" x="-146.22" y="-243.76" width="1920" height="1080"/>
	</defs>
	<clipPath id="SVGID_2_">
		<use xlink:href="#SVGID_1_"  style="overflow:visible;"/>
	</clipPath>
	<path class="st0" d="M287.62,140.71c-9.03-5.73-16.57-8.28-24.46-8.28c-6.19,0-12.69,1.48-22.43,5.12
		c-0.69,0.26-1.47,0.08-1.98-0.45c-0.52-0.53-0.66-1.32-0.38-2c3.36-8.05,8.73-19.46,15.31-28.12
		c9.14-12.03,23.04-14.53,31.56-14.82c-3.24-1.32-7.49-2.67-12.64-3.51c-3.88-0.64-7.34-0.95-10.59-0.95
		c-13.58,0-22.29,5.67-32.75,15.46c-0.54,0.51-1.34,0.65-2.02,0.34c-0.68-0.31-1.11-0.99-1.09-1.74c0.21-7.99,1.01-19.55,3.67-29.24
		c2.56-9.38,8.93-17.27,18.4-22.79c1.88-1.1,3.7-2,5.37-2.73h-0.17c-4.21,0-8.54,0.49-12.88,1.46c-9.97,2.23-16.86,5.52-22.33,10.65
		c-4.73,4.44-8.51,10.32-13.06,20.28c-0.31,0.67-0.98,1.09-1.72,1.08c-0.74-0.02-1.4-0.47-1.68-1.15
		c-3.32-8.06-7.59-19.93-9.07-30.72c-1.32-9.63,1.45-19.38,7.99-28.18c1.29-1.74,2.61-3.28,3.85-4.61
		c-3.22,1.36-7.18,3.41-11.41,6.45c-16.58,11.91-19.78,22.68-20.38,40.91c-0.02,0.75-0.5,1.4-1.19,1.67c-0.7,0.27-1.49,0.09-2-0.46
		c-5.5-5.79-13.11-14.53-18.08-23.26c-4.82-8.45-5.9-18.52-3.11-29.13c0.55-2.1,1.2-4.02,1.85-5.71c-2.48,2.46-5.39,5.84-8.18,10.24
		c-5.48,8.63-8.03,15.83-8.26,23.33c-0.21,6.48,1.27,13.31,5.11,23.57c0.25,0.69,0.08,1.47-0.45,1.98
		c-0.53,0.51-1.31,0.66-1.99,0.38c-8.05-3.35-19.46-8.73-28.13-15.31c-7.75-5.88-12.69-14.73-14.29-25.58
		c-0.31-2.15-0.48-4.16-0.53-5.97c-1.32,3.24-2.67,7.49-3.51,12.63C86.65,51.71,92,61.6,104.47,74.91c0.51,0.54,0.64,1.34,0.34,2.03
		c-0.3,0.68-1,1.11-1.74,1.09c-7.99-0.21-19.55-1.01-29.23-3.66c-9.39-2.57-17.27-8.94-22.8-18.4c-1.09-1.87-1.99-3.68-2.72-5.35
		c-0.01,3.49,0.31,7.95,1.45,13.03C52,73.62,55.28,80.5,60.42,85.97c4.44,4.73,10.31,8.52,20.28,13.06c0.67,0.31,1.1,0.98,1.08,1.72
		c-0.01,0.74-0.46,1.4-1.14,1.68c-8.06,3.32-19.93,7.59-30.71,9.06c-1.58,0.22-3.19,0.33-4.77,0.33c-8.52,0-17.08-3.23-24.76-9.34
		c-1.2-0.96-2.29-1.91-3.26-2.82c1.36,3.22,3.41,7.18,6.45,11.41c11.92,16.58,22.69,19.78,40.91,20.38c0.75,0.03,1.4,0.49,1.67,1.19
		c0.26,0.7,0.09,1.49-0.46,2c-5.79,5.5-14.54,13.11-23.26,18.09c-5.39,3.08-11.38,4.63-17.79,4.63c-6.63,0-12.6-1.64-17.03-3.36
		c2.46,2.48,5.83,5.38,10.22,8.17c9.03,5.72,16.57,8.28,24.46,8.28c6.19,0,12.69-1.48,22.44-5.12c0.69-0.26,1.47-0.08,1.98,0.45
		c0.51,0.53,0.66,1.31,0.37,1.99c-3.35,8.05-8.73,19.46-15.31,28.13c-9.14,12.04-23.03,14.53-31.56,14.82
		c3.24,1.32,7.49,2.67,12.63,3.51c3.88,0.64,7.34,0.95,10.59,0.95c13.58,0,22.29-5.67,32.75-15.47c0.54-0.51,1.34-0.64,2.02-0.33
		c0.68,0.31,1.11,0.99,1.09,1.73c-0.2,7.99-1.01,19.55-3.66,29.24c-2.57,9.39-8.93,17.27-18.4,22.79c-1.88,1.1-3.7,2-5.36,2.73h0.17
		c4.21,0,8.54-0.49,12.87-1.46c9.98-2.23,16.87-5.52,22.34-10.65c4.72-4.43,8.51-10.31,13.05-20.28c0.3-0.67,0.98-1.09,1.72-1.08
		c0.74,0.02,1.39,0.47,1.68,1.15c3.32,8.06,7.59,19.93,9.06,30.71c1.32,9.64-1.44,19.39-7.99,28.18c-1.29,1.74-2.61,3.27-3.85,4.61
		c3.22-1.36,7.18-3.41,11.41-6.45c16.58-11.92,19.78-22.69,20.38-40.91c0.03-0.74,0.49-1.4,1.19-1.67c0.22-0.08,0.44-0.12,0.65-0.12
		c0.5,0,0.99,0.21,1.35,0.58c5.5,5.8,13.11,14.54,18.08,23.26c4.82,8.45,5.9,18.52,3.11,29.13c-0.55,2.1-1.2,4.01-1.86,5.71
		c2.48-2.46,5.39-5.84,8.18-10.24c5.48-8.63,8.03-15.83,8.26-23.32c0.21-6.48-1.27-13.31-5.1-23.57c-0.26-0.69-0.08-1.47,0.45-1.98
		c0.53-0.51,1.32-0.66,1.99-0.38c8.05,3.35,19.46,8.73,28.13,15.31c7.75,5.88,12.69,14.72,14.29,25.57
		c0.31,2.14,0.47,4.16,0.53,5.97c1.31-3.24,2.67-7.49,3.51-12.63c3.3-20.14-2.05-30.03-14.52-43.34c-0.51-0.54-0.64-1.34-0.34-2.02
		c0.3-0.68,0.99-1.11,1.73-1.09c8,0.21,19.55,1.01,29.24,3.66c9.39,2.57,17.26,8.93,22.8,18.4c1.09,1.87,1.99,3.69,2.72,5.35
		c0.01-3.5-0.32-7.95-1.46-13.03c-2.23-9.97-5.51-16.87-10.65-22.33c-4.44-4.73-10.31-8.51-20.27-13.05
		c-0.67-0.31-1.09-0.98-1.08-1.72c0.01-0.74,0.46-1.39,1.14-1.67c8.06-3.32,19.93-7.59,30.72-9.06c1.58-0.22,3.19-0.33,4.77-0.33
		c8.51,0,17.07,3.23,24.75,9.34c1.2,0.95,2.29,1.9,3.27,2.82c-1.36-3.22-3.41-7.18-6.45-11.41c-11.92-16.58-22.69-19.78-40.91-20.39
		c-0.74-0.03-1.4-0.49-1.67-1.19c-0.27-0.7-0.09-1.49,0.45-2c5.8-5.51,14.54-13.11,23.26-18.08c5.39-3.08,11.38-4.64,17.79-4.64
		c6.62,0,12.59,1.64,17.03,3.36C295.38,146.4,292,143.5,287.62,140.71"/>
	<path class="st1" d="M363.62,66.2l149.87-0.34c47.85,0,63.08,21.53,63.08,59.57c0,32.77-17.22,58.14-65.07,58.14h-80.41v53.11
		l-67.46,0.35V66.2z M431.08,141.93h51.71c17.23,0,23.45-5.26,23.45-17.7c0-13.16-6.22-18.19-23.45-18.19h-51.71V141.93z"/>
	<polygon class="st2" points="578.19,68.48 774.68,68.48 774.68,109.09 641.36,109.09 641.36,131.49 766.74,131.49 766.74,172.11 
		641.36,172.11 641.36,194.51 774.68,194.51 774.68,235.12 578.19,235.12 	"/>
	<path class="st3" d="M780.39,68.48h138.63c18.9,0,30.34,1.63,39.44,6.07c12.37,6.3,22.64,21.94,22.64,40.38
		c0,15.87-6.3,32.44-25.67,38.05v0.47c10.04,2.8,17.74,10.97,18.91,25.67l2.8,36.41c0.7,7.47,3.73,14.24,8.17,19.6h-71.88
		c-2.57-4.9-2.33-12.14-3.5-31.51c-0.7-12.37-4.9-19.84-17.04-19.84h-46.68v51.34h-65.82V68.48z M846.21,141.76h46.68
		c13.07,0,18.2-5.13,18.2-15.64c0-12.84-8.17-15.64-19.14-15.64h-45.74V141.76z"/>
	<polygon class="st4" points="366.5,244.85 483.03,244.85 549.78,337.28 550.48,337.28 550.48,244.85 613.5,244.85 613.5,411.49 
		541.38,411.49 471.36,318.14 470.9,318.14 470.9,411.49 366.5,411.49 	"/>
	<path class="st5" d="M681.2,244.85h80.75l70.95,166.64h-70.02l-7-19.14h-68.62l-7,19.14h-70.02L681.2,244.85z M721.81,295.27h-0.47
		l-19.61,56.48h39.68L721.81,295.27z"/>
	<polygon class="st6" points="829.66,244.85 922.31,244.85 949.62,341.71 950.08,341.71 977.39,244.85 1070.05,244.85 
		1070.05,411.49 1010.3,411.49 1010.3,292.46 1009.83,292.46 974.82,411.49 924.88,411.49 889.87,292.46 889.4,292.46 889.4,411.49 
		829.66,411.49 	"/>
	<path class="st7" d="M366.5,423.28h156.22c34.31,0,49.24,14.71,49.24,41.54c0,14.94-7,27.54-19.84,32.44v0.47
		c21.47,5.6,28.47,25.67,28.47,38.04c0,32.67-16.33,54.14-65.11,54.14H366.5V423.28z M430.92,485.36h56.1
		c13.3,0,16.33-4.43,16.33-10.97c0-6.3-3.03-10.5-16.33-10.5h-56.1V485.36z M430.92,549.31h62.63c13.07,0,17.04-5.6,17.04-13.07
		c0-7.24-3.97-13.07-17.04-13.07h-62.63V549.31z"/>
	<path class="st8" d="M587.08,423.28h65.04V524.1c0,21.47,12.22,28.24,33.45,28.24c21.22,0,33.45-6.77,33.45-28.24V423.28h65.05
		v103.39c0,52.98-31.6,69.08-98.49,69.08c-66.89,0-98.49-16.1-98.49-69.08V423.28z"/>
	<path class="st9" d="M1015.6,525.03c-4.43,22.17-11.43,39.68-28,51.82c-16.1,12.14-41.31,18.9-81.45,18.9
		c-39.91,0-113.89-2.56-113.89-89.15c0-86.35,73.98-89.15,113.89-89.15c39.44,0,101.06,4.9,109.46,71.18h-74.22
		c-1.87-11.9-9.8-29.17-35.24-29.17c-27.07,0-43.88,13.3-43.88,47.14c0,33.84,16.34,47.14,40.61,47.14
		c20.77,0,33.14-8.4,38.51-28.71H1015.6z"/>
	<path class="st10" d="M1132.32,417.44c39.91,0,113.89,2.8,113.89,89.15c0,86.35-73.98,89.15-113.89,89.15
		c-39.91,0-113.89-2.57-113.89-89.15C1018.42,420.25,1092.41,417.44,1132.32,417.44 M1132.32,553.74c27.07,0,43.88-13.3,43.88-47.14
		c0-33.84-16.81-47.15-43.88-47.15c-27.07,0-43.88,13.3-43.88,47.15C1088.44,540.44,1105.25,553.74,1132.32,553.74"/>
</g>
</svg>
